M48
;Layer_Color=9474304
;FILE_FORMAT=4:4
METRIC,LZ
;TYPE=PLATED
T1F00S00C0.3048
T2F00S00C0.5000
T3F00S00C0.8000
T4F00S00C0.8890
T5F00S00C1.0922
%
T01
X-00508Y0000762
X-0049149
X-0046863Y0001016
X-0047371Y0001524
X-0046863Y0002032
X-0047371Y000254
X-0046863Y0003048
X-0047371Y0003556
X-0046863Y0004064
X-0044831
Y0003048
Y0002032
Y0001016
X-0044323Y0001524
Y000254
Y0003556
X-0042291
Y00026162
X-0041783Y0003048
Y00020541
Y0001016
X-0042291Y00014701
X-0039751Y0001016
X-0039243Y0001524
X-0039751Y0002032
X-0039243Y000254
X-0039751Y0003048
X-0039243Y0003556
X-0039751Y0004064
X-0041783
X-0042672Y00063654
X-0041529Y00075636
X-0038735Y00062706
X-0035814Y00053488
X-00345588Y00006908
X-00320583
X-00294082
X-00270927
X-00249894
X-00243988Y00041615
X-0026162Y00037953
X-0021844Y0003683
Y000508
Y00020541
X-0020447Y0000889
X-00186436
X-0020574Y00081733
X-0020447Y00116545
X-0019304Y0011176
X-001778
X-00181651Y001778
X-00199685Y0017145
Y00189559
X-0021717Y00183821
Y0021336
X-00243988Y00206715
X-0024511Y00190829
X-00244967Y0017526
X-0026035Y0016095
Y0013208
X-00244967Y00133001
X-0021717Y00152574
X-0027295Y00181516
X-002921Y00181315
X-00300432Y00164159
X-0029845Y00131932
X-0029677Y001143
X-00317826Y00115091
X-0033782Y00115422
X-0034925Y0013251
X-00323452Y0013208
Y00186443
X-0031115Y00198678
X-0029845Y0021209
X-00284443Y0022606
X-00269657Y0024003
X-0024765Y00240742
X-00243988Y00282354
X-00262332Y002921
X-0029972Y00283455
X-0031369Y0029337
X-0033147
X-0037211
X-0041021
X-0042762Y00283455
X-00428625Y0026162
X-0041529Y00244639
X-00435684Y0022098
X-00450813Y0022352
X-0046355Y0021209
X-0047498Y0020066
X-0048641Y00188425
X-00487122Y0017145
X-0047244Y00159374
X-0046482Y00131932
X-0048768Y00131731
X-00428625Y00130461
X-0042672Y0010922
X-0043942Y00096366
X-0045339Y00084706
X-0048895Y0003937
X-00508Y0002667
X-0050673Y0005715
X-004572Y00179333
X-0042926Y00180246
X-0041021Y00165877
X-0039878Y00186443
X-0039243Y0022266
X-0036068Y00218998
Y00176928
X-0034925Y00163787
X-0032893Y00230845
X-0031453Y00246165
X-00298867Y00258333
X-0019812Y00246165
X-00183918Y0023241
X-00177988Y0025527
Y00271187
X-0046355Y00259638
X-0046482Y00285421
X-0047752Y0024638
X-00495153Y002286
X-0050038Y0026543
X-0040386Y0012827
X-0037084Y00006908
X-0016764Y0001016
X-0016256Y0001524
X-0016764Y0002032
X-0016256Y000254
X-0016764Y0003048
X-0016256Y0003556
X-0016764Y0004064
X-0014224Y0003556
Y000254
Y0001524
X-0013716Y0001016
Y0002032
Y0003048
Y0004064
X-0011684
X-00111671Y0003556
X-0011176Y000254
Y0001524
X-0011684Y0001016
X-00117323Y0002032
Y0003048
X-0009144Y000254
Y0001524
X-0008636Y0001016
Y0002032
Y0003048
X-0009144Y0003556
X-0008636Y0004064
X-00097806Y00066714
Y0008763
Y0010795
Y0012827
Y00149225
X-0007112
Y0012827
Y0010795
Y0008763
Y00066714
X-0004572
Y0008763
Y0010795
Y0012827
Y00149225
Y00172162
X-0006096Y00168198
X-00086508Y0016764
X-00109675Y0020066
X-00109189Y0021844
X-0010922Y0023876
X-00102947Y0025146
X-0009017Y0025467
X-0008255Y00263838
Y00278528
X-0005588Y00280372
X-00048042Y0026289
X-0006858Y00258704
X-00063464Y0024003
X-00062194Y0021971
X-00028768Y0019304
X-00014345Y00189868
X-0001397Y00205445
X-00023983Y0017018
X-0002159Y00149225
Y0012827
Y0010795
Y0008763
Y00066714
X-0000889Y000508
Y0003556
Y00020541
X-0002032Y0000889
X-0003683
X-0005588
X-0007366
X-0013208Y00082221
X-001524Y00089508
X-00163115Y00100349
X-00166777Y0012319
X-00160286Y00139756
X-0014351Y001397
Y0012319
X-0012446
Y00140563
X-0013589Y0017653
X-0012319Y00188289
X-0017526Y00286011
X-00014345Y00254
X-00013075Y0029591
X-0016185
X-00190137Y00295093
X-0021844
X-003556Y0029464
X-0039116
X-0047879
T02
X-0034417Y0007028
Y0009228
X-0024892Y0009101
Y0006901
X-0018669Y0013251
Y0015451
T03
X-0010608Y0027432
X-0003108
T04
X-0032639Y0002413
X-0025146
T05
X-0036195Y0014859
Y0019939
Y0027559
X-0015875
Y0017399
Y0007239
M30
