G04*
G04 #@! TF.GenerationSoftware,Altium Limited,Altium Designer,19.0.4 (130)*
G04*
G04 Layer_Color=32896*
%FSTAX44Y44*%
%MOMM*%
G71*
G01*
G75*
%ADD10C,0.2540*%
%ADD41C,0.2000*%
%ADD42C,0.2032*%
%ADD43C,0.5000*%
%ADD44C,0.1270*%
%ADD45C,0.5080*%
%ADD46C,0.3810*%
D10*
X-002169Y0020955D02*
G03*
X-002169Y0020955I-000625J0D01*
G01*
X-0038327D02*
G03*
X-0038327Y0020955I-000625J0D01*
G01*
X-0003302Y0025273D02*
G03*
X-0003302Y0029591I0J0002159D01*
G01*
X-0010414D02*
G03*
X-0010414Y0025273I0J-0002159D01*
G01*
X-0023241Y0029337D02*
X-0023241Y0005588D01*
X-001778Y00054118D02*
X-001778Y00060468D01*
X-0019558Y00054118D02*
X-001778D01*
X-0019558D02*
Y00061738D01*
X-0019558Y00068088D02*
Y00079518D01*
X-001778Y00068088D02*
Y00079518D01*
X-001778Y00084598D02*
Y00092218D01*
X-0019558D02*
X-001778D01*
X-0019558Y00084598D02*
Y00092218D01*
X-00150126Y0020828D02*
X-00150126Y0021463D01*
X-00167906Y0020828D02*
X-00150126D01*
X-00167906D02*
Y002159D01*
X-00167906Y0022225D02*
Y0023368D01*
X-00150126Y0022225D02*
Y0023368D01*
X-00150126Y0023876D02*
Y0024638D01*
X-00167906D02*
X-00150126D01*
X-00167906Y0023876D02*
Y0024638D01*
X-00489204Y00056388D02*
X-00397256D01*
Y00116332D01*
X-00489204Y00056388D02*
Y00116332D01*
X-00397256D01*
X-000635Y0027432D02*
X-0004826D01*
X-000889D02*
X-0007366D01*
X-0007366Y0026416D02*
Y0028448D01*
X-000635Y0026416D02*
Y0028448D01*
X-0010414Y0029591D02*
X-0003302D01*
X-0010414Y0025273D02*
X-0003302D01*
X-0006985Y00034285D02*
Y0001905D01*
X-00062232D01*
X-00059693Y00021589D01*
Y00024128D01*
X-00062232Y00026667D01*
X-0006985D01*
X-00062232D01*
X-00059693Y00029207D01*
Y00031746D01*
X-00062232Y00034285D01*
X-0006985D01*
X-0037592D02*
Y0001905D01*
X-00368302D01*
X-00365763Y00021589D01*
Y00024128D01*
X-00368302Y00026667D01*
X-0037592D01*
X-00368302D01*
X-00365763Y00029207D01*
Y00031746D01*
X-00368302Y00034285D01*
X-0037592D01*
X-0013081Y00231145D02*
Y00243841D01*
X-00128271Y0024638D01*
X-00123193D01*
X-00120653Y00243841D01*
Y00231145D01*
X-00115575Y00233684D02*
X-00113036Y00231145D01*
X-00107957D01*
X-00105418Y00233684D01*
Y00236223D01*
X-00107957Y00238762D01*
X-00110497D01*
X-00107957D01*
X-00105418Y00241302D01*
Y00243841D01*
X-00107957Y0024638D01*
X-00113036D01*
X-00115575Y00243841D01*
X-00189492Y002413D02*
X-00174256D01*
Y00231143D01*
Y00218447D02*
X-00189492D01*
X-00181874Y00226065D01*
Y00215908D01*
X-00157485Y000889D02*
X-0017272D01*
Y00099057D01*
X-00160024Y00104135D02*
X-00157485Y00106674D01*
Y00111753D01*
X-00160024Y00114292D01*
X-00162563D01*
X-00165103Y00111753D01*
Y00109213D01*
Y00111753D01*
X-00167642Y00114292D01*
X-00170181D01*
X-0017272Y00111753D01*
Y00106674D01*
X-00170181Y00104135D01*
X-0028448Y00044445D02*
Y0002921D01*
X-00294637D01*
X-00309872D02*
X-00299715D01*
X-00309872Y00039367D01*
Y00041906D01*
X-00307333Y00044445D01*
X-00302254D01*
X-00299715Y00041906D01*
X-00388615Y00094434D02*
X-0037338D01*
Y00084278D01*
Y00079199D02*
Y00074121D01*
Y0007666D01*
X-00388615D01*
X-00386076Y00079199D01*
X-00138425Y00132083D02*
Y0014224D01*
X-0012319D01*
Y00132083D01*
X-00130808Y0014224D02*
Y00137162D01*
X-00138425Y00116848D02*
X-00135886Y00121927D01*
X-00130808Y00127005D01*
X-00125729D01*
X-0012319Y00124466D01*
Y00119387D01*
X-00125729Y00116848D01*
X-00128268D01*
X-00130808Y00119387D01*
Y00127005D01*
X-00220975Y00127916D02*
Y00138073D01*
X-0020574D01*
Y00127916D01*
X-00213358Y00138073D02*
Y00132994D01*
X-00220975Y00112681D02*
Y00122838D01*
X-00213358D01*
X-00215897Y00117759D01*
Y0011522D01*
X-00213358Y00112681D01*
X-00208279D01*
X-0020574Y0011522D01*
Y00120299D01*
X-00208279Y00122838D01*
X-00250187Y00232405D02*
X-0024003D01*
Y0021717D01*
X-00250187D01*
X-0024003Y00224788D02*
X-00245108D01*
X-00265422Y0021717D02*
X-00255265D01*
X-00265422Y00227327D01*
Y00229866D01*
X-00262883Y00232405D01*
X-00257804D01*
X-00255265Y00229866D01*
X-00411477Y00236215D02*
X-0040132D01*
Y0022098D01*
X-00411477D01*
X-0040132Y00228598D02*
X-00406398D01*
X-00416555Y0022098D02*
X-00421633D01*
X-00419094D01*
Y00236215D01*
X-00416555Y00233676D01*
X-00019046Y00236223D02*
X-00021585Y00238762D01*
Y00243841D01*
X-00019046Y0024638D01*
X-00008889D01*
X-0000635Y00243841D01*
Y00238762D01*
X-00008889Y00236223D01*
X-00021585Y00231145D02*
X-00019046D01*
X-00013967Y00226067D01*
X-00019046Y00220988D01*
X-00021585D01*
X-00013967Y00226067D02*
X-0000635D01*
Y0021591D02*
Y00210832D01*
Y00213371D01*
X-00021585D01*
X-00019046Y0021591D01*
X-0018943Y00190503D02*
X-0019197Y00193043D01*
Y00198121D01*
X-0018943Y0020066D01*
X-00179274D01*
X-00176734Y00198121D01*
Y00193043D01*
X-00179274Y00190503D01*
X-00176734Y00177807D02*
X-0019197D01*
X-00184352Y00185425D01*
Y00175268D01*
X-00026666Y00029213D02*
X-00029205Y00031753D01*
Y00036831D01*
X-00026666Y0003937D01*
X-00016509D01*
X-0001397Y00036831D01*
Y00031753D01*
X-00016509Y00029213D01*
X-00026666Y00024135D02*
X-00029205Y00021596D01*
Y00016517D01*
X-00026666Y00013978D01*
X-00024127D01*
X-00021588Y00016517D01*
Y00019057D01*
Y00016517D01*
X-00019048Y00013978D01*
X-00016509D01*
X-0001397Y00016517D01*
Y00021596D01*
X-00016509Y00024135D01*
X-0020041Y00025397D02*
X-00197871Y00022857D01*
Y00017779D01*
X-0020041Y0001524D01*
X-00210567D01*
X-00213106Y00017779D01*
Y00022857D01*
X-00210567Y00025397D01*
X-00213106Y00040632D02*
Y00030475D01*
X-00202949Y00040632D01*
X-0020041D01*
X-00197871Y00038093D01*
Y00033014D01*
X-0020041Y00030475D01*
X-00251781Y00122439D02*
X-00249242Y00124978D01*
X-00244164D01*
X-00241625Y00122439D01*
Y00112282D01*
X-00244164Y00109743D01*
X-00249242D01*
X-00251781Y00112282D01*
X-0025686Y00109743D02*
X-00261938D01*
X-00259399D01*
Y00124978D01*
X-0025686Y00122439D01*
X-00344173Y00035564D02*
X-00346712Y00033025D01*
X-00351791D01*
X-0035433Y00035564D01*
Y00045721D01*
X-00351791Y0004826D01*
X-00346712D01*
X-00344173Y00045721D01*
X-00339095Y00035564D02*
X-00336556Y00033025D01*
X-00331477D01*
X-00328938Y00035564D01*
Y00045721D01*
X-00331477Y0004826D01*
X-00336556D01*
X-00339095Y00045721D01*
Y00035564D01*
D41*
X-00032258Y0003556D02*
G03*
X-00037084Y00039624I-00004445J-00000381D01*
G01*
X-00037084Y00012446D02*
G03*
X-00032004Y0001778I-00000127J00005207D01*
G01*
X-00046482Y0001778D02*
G03*
X-00042164Y00012446I00004826J-00000508D01*
G01*
X-00042164Y00039624D02*
G03*
X-00046736Y0003556I-00000254J-00004318D01*
G01*
X-00193802Y0001778D02*
G03*
X-00188976Y00013716I00004445J00000381D01*
G01*
X-00188976Y00040894D02*
G03*
X-00194056Y0003556I00000127J-00005207D01*
G01*
X-00179578Y0003556D02*
G03*
X-00183896Y00040894I-00004826J00000508D01*
G01*
X-00183896Y00013716D02*
G03*
X-00179324Y0001778I00000254J00004318D01*
G01*
X-00331465Y0009568D02*
G03*
X-00356875Y0009568I-00012705J0D01*
G01*
Y0006688D02*
G03*
X-00331465Y0006688I00012705J0D01*
G01*
X-00236215Y0009441D02*
G03*
X-00261625Y0009441I-00012705J0D01*
G01*
Y0006561D02*
G03*
X-00236215Y0006561I00012705J0D01*
G01*
X-00173985Y0015791D02*
G03*
X-00199395Y0015791I-00012705J0D01*
G01*
Y0012911D02*
G03*
X-00173985Y0012911I00012705J0D01*
G01*
X-00125222Y00055118D02*
X-0012192Y0005842D01*
X-00138938Y00055118D02*
X-00125222D01*
X-0012192Y0005842D02*
Y0007493D01*
X-0014224Y0005842D02*
X-00138938Y00055118D01*
X-0014224Y0007493D02*
X-0014224Y0005842D01*
X-0012192Y0009144D02*
X-0012192Y0010922D01*
X-0014224Y0010922D02*
X-0012192Y0010922D01*
X-0014224Y0010922D02*
X-0014224Y0009144D01*
X-00046482Y0001778D02*
X-00046482Y00022352D01*
X-00042164Y00012446D02*
X-00037084Y00012446D01*
X-00032004Y0001778D02*
Y00021844D01*
X-00032258Y0003556D02*
X-00032258Y00028956D01*
X-00042164Y00039624D02*
X-00037084D01*
X-00046736Y00029718D02*
Y0003556D01*
X-00179578Y00030988D02*
X-00179578Y0003556D01*
X-00188976Y00040894D02*
X-00183896D01*
X-00194056Y00031496D02*
Y0003556D01*
X-00193802Y00024384D02*
X-00193802Y0001778D01*
X-00188976Y00013716D02*
X-00183896D01*
X-00179324Y0001778D02*
Y00023622D01*
X-00331475Y0006688D02*
Y0009568D01*
X-00356875Y0006688D02*
Y0009568D01*
X-00236225Y0006561D02*
Y0009441D01*
X-00261625Y0006561D02*
Y0009441D01*
X-00173995Y0012911D02*
Y0015791D01*
X-00199395Y0012911D02*
Y0015791D01*
X-0022098Y0009017D02*
Y0010795D01*
X-0020066D01*
Y0009017D02*
Y0010795D01*
X-0022098Y0005715D02*
Y0007366D01*
Y0005715D02*
X-00217678Y00053848D01*
X-0020066Y0005715D02*
Y0007366D01*
X-00217678Y00053848D02*
X-00203962D01*
X-0020066Y0005715D01*
D42*
X-00298449Y00066039D02*
G03*
X-00298449Y00071119I0J0000254D01*
G01*
Y00091439D02*
G03*
X-00298449Y00096519I0J0000254D01*
G01*
Y00076199D02*
G03*
X-00298449Y00081279I0J0000254D01*
G01*
D02*
G03*
X-00298449Y00086359I0J0000254D01*
G01*
Y00071119D02*
G03*
X-00298449Y00076199I0J0000254D01*
G01*
Y00086359D02*
G03*
X-00298449Y00091439I0J0000254D01*
G01*
X-0032512Y0005461D02*
X-0030861D01*
X-0032512D02*
Y0010795D01*
X-0030861D01*
X-0028575D02*
X-0026924D01*
Y0005461D02*
Y0010795D01*
X-0028575Y0005461D02*
X-0026924D01*
X-00298449Y00096519D02*
Y0010414D01*
Y0005842D02*
Y00066039D01*
X-0030099Y0005461D02*
X-0029337D01*
X-0030099Y0010795D02*
X-0029337D01*
D43*
X-0010595Y0022225D02*
G03*
X-0010595Y0022225I-00002J0D01*
G01*
D44*
X-0048374Y00107602D02*
G03*
X-00465741Y00107586I00009002J00002995D01*
G01*
X-00465738Y00110344D02*
G03*
X-00450738Y00110344I000075J-00000828D01*
G01*
X-0045074Y00106349D02*
G03*
X-00435741Y00106336I00007502J00002895D01*
G01*
X-00435738Y00110344D02*
G03*
X-00420738Y00110344I000075J-00001094D01*
G01*
X-00420738Y00107339D02*
G03*
X-00403738Y00107339I000085J000019D01*
G01*
X-00403738Y00063092D02*
G03*
X-00421738Y00063092I-00009J-00003011D01*
G01*
X-00421738Y00060344D02*
G03*
X-00436738Y00060344I-000075J00000828D01*
G01*
X-00436736Y00064339D02*
G03*
X-00451735Y00064352I-00007502J-00002895D01*
G01*
X-00451738Y00060344D02*
G03*
X-00466738Y00060344I-000075J00001094D01*
G01*
Y00063349D02*
G03*
X-00483738Y00063349I-000085J-000019D01*
G01*
Y00107596D02*
Y00112014D01*
X-00465738Y00107596D02*
Y00110344D01*
X-00450738Y00106344D02*
Y00110344D01*
X-00435738Y00106344D02*
Y00110344D01*
X-00420738Y00107339D02*
Y00110344D01*
X-00403738Y00107339D02*
Y00112014D01*
X-00480738Y00091344D02*
X-00405738D01*
X-00480738Y00079344D02*
X-00405738D01*
X-00403738Y00059944D02*
Y00063092D01*
X-00421738Y00060344D02*
Y00063092D01*
X-00436738Y00060344D02*
Y00064344D01*
X-00451738Y00060344D02*
Y00064344D01*
X-00466738Y00060344D02*
Y00063349D01*
X-00483738Y00059944D02*
Y00063349D01*
D45*
X-003444Y0027555D02*
X-002134D01*
X-002444Y0014355D02*
X-002134Y0017455D01*
X-003444D02*
Y0027555D01*
Y0017455D02*
X-003134Y0014355D01*
X-002134Y0017455D02*
Y0027555D01*
X-003134Y0014355D02*
X-002444D01*
X-0051077Y0027555D02*
X-0037977D01*
X-0041077Y0014355D02*
X-0037977Y0017455D01*
X-0051077D02*
Y0027555D01*
Y0017455D02*
X-0047977Y0014355D01*
X-0037977Y0017455D02*
Y0027555D01*
X-0047977Y0014355D02*
X-0041077D01*
D46*
X-0000889Y0016383D02*
Y0018161D01*
X-0011557D02*
X-0000889D01*
X-0011557Y0016383D02*
Y0018161D01*
M02*
