G04*
G04 #@! TF.GenerationSoftware,Altium Limited,Altium Designer,19.0.4 (130)*
G04*
G04 Layer_Color=128*
%FSTAX44Y44*%
%MOMM*%
G71*
G01*
G75*
%ADD10C,0.2540*%
%ADD11C,0.0508*%
D10*
X0Y0029845D02*
G03*
X-0000635Y003048I-0000635J0D01*
G01*
X-0051181D02*
G03*
X-0051816Y0029845I0J-0000635D01*
G01*
X0Y0026797D02*
Y0029845D01*
Y0D02*
Y0026797D01*
X-0051181Y003048D02*
X-0000635D01*
X-0051816Y0D02*
Y0029845D01*
Y0D02*
X0D01*
D11*
X-00255905Y0002413D02*
X-00247015D01*
X-0025146Y00019685D02*
Y00028575D01*
X-00330835Y0002413D02*
X-00321945D01*
X-0032639Y00019685D02*
Y00028575D01*
X-0034667Y0009228D02*
X-0034167D01*
X-0034417Y0008978D02*
Y0009478D01*
X-0034667Y0007028D02*
X-0034167D01*
X-0034417Y0006778D02*
Y0007278D01*
X-0025142Y0009101D02*
X-0024642D01*
X-0024892Y0008851D02*
Y0009351D01*
X-0025142Y0006901D02*
X-0024642D01*
X-0024892Y0006651D02*
Y0007151D01*
X-0018919Y0015451D02*
X-0018419D01*
X-0018669Y0015201D02*
Y0015701D01*
X-0018919Y0013251D02*
X-0018419D01*
X-0018669Y0013001D02*
Y0013501D01*
X-0011008Y0027432D02*
X-0010208D01*
X-0010608Y0027032D02*
Y0027832D01*
X-0003508Y0027432D02*
X-0002708D01*
X-0003108Y0027032D02*
Y0027832D01*
X-00164211Y0007239D02*
X-00153289D01*
X-0015875Y00066929D02*
Y00077851D01*
X-00164211Y0017399D02*
X-00153289D01*
X-0015875Y00168529D02*
Y00179451D01*
X-00367411Y0014859D02*
X-00356489D01*
X-0036195Y00143129D02*
Y00154051D01*
X-00367411Y0019939D02*
X-00356489D01*
X-0036195Y00193929D02*
Y00204851D01*
X-00164211Y0027559D02*
X-00153289D01*
X-0015875Y00270129D02*
Y00281051D01*
X-00367411Y0027559D02*
X-00356489D01*
X-0036195Y00270129D02*
Y00281051D01*
X-00501904Y0026543D02*
X-00498856D01*
X-0050038Y00263906D02*
Y00266954D01*
X-00480314Y0029464D02*
X-00477266D01*
X-0047879Y00293116D02*
Y00296164D01*
X-00411734Y0029337D02*
X-00408686D01*
X-0041021Y00291846D02*
Y00294894D01*
X-00392684Y0029464D02*
X-00389636D01*
X-0039116Y00293116D02*
Y00296164D01*
X-00373634Y0029337D02*
X-00370586D01*
X-0037211Y00291846D02*
Y00294894D01*
X-00357124Y0029464D02*
X-00354076D01*
X-003556Y00293116D02*
Y00296164D01*
X-00332994Y0029337D02*
X-00329946D01*
X-0033147Y00291846D02*
Y00294894D01*
X-00315214Y0029337D02*
X-00312166D01*
X-0031369Y00291846D02*
Y00294894D01*
X-00263144Y00037953D02*
X-00260096D01*
X-0026162Y00036429D02*
Y00039477D01*
X-00245511Y00041615D02*
X-00242463D01*
X-00243988Y00040091D02*
Y00043139D01*
X-00430784Y00180246D02*
X-00427736D01*
X-0042926Y00178722D02*
Y0018177D01*
X-00458724Y00179333D02*
X-00455676D01*
X-004572Y00177809D02*
Y00180857D01*
X-00473964Y00159374D02*
X-00470916D01*
X-0047244Y0015785D02*
Y00160898D01*
X-00411734Y00165877D02*
X-00408686D01*
X-0041021Y00164353D02*
Y00167401D01*
X-00429144Y00283455D02*
X-00426096D01*
X-0042762Y00281931D02*
Y00284979D01*
X-00466344Y00285421D02*
X-00463296D01*
X-0046482Y00283897D02*
Y00286945D01*
X-00496676Y002286D02*
X-00493629D01*
X-00495153Y00227076D02*
Y00230124D01*
X-00479044Y0024638D02*
X-00475996D01*
X-0047752Y00244856D02*
Y00247904D01*
X-00465074Y00259638D02*
X-00462026D01*
X-0046355Y00258114D02*
Y00261162D01*
X-00430149Y0026162D02*
X-00427101D01*
X-00428625Y00260096D02*
Y00263144D01*
X-00416814Y00244639D02*
X-00413766D01*
X-0041529Y00243115D02*
Y00246163D01*
X-00393954Y0022266D02*
X-00390906D01*
X-0039243Y00221136D02*
Y00224184D01*
X-00362204Y00218998D02*
X-00359156D01*
X-0036068Y00217474D02*
Y00220522D01*
X-00330454Y00230845D02*
X-00327406D01*
X-0032893Y00229321D02*
Y00232369D01*
X-00316054Y00246165D02*
X-00313006D01*
X-0031453Y00244641D02*
Y00247689D01*
X-00300391Y00258333D02*
X-00297343D01*
X-00298867Y00256808D02*
Y00259856D01*
X-00301244Y00283455D02*
X-00298196D01*
X-0029972Y00281931D02*
Y00284979D01*
X-00263856Y002921D02*
X-00260808D01*
X-00262332Y00290576D02*
Y00293624D01*
X-00245511Y00282354D02*
X-00242463D01*
X-00243988Y0028083D02*
Y00283878D01*
X-00388874Y00062706D02*
X-00385826D01*
X-0038735Y00061182D02*
Y0006423D01*
X-00372364Y00006908D02*
X-00369316D01*
X-0037084Y00005384D02*
Y00008432D01*
X-00347112Y00006908D02*
X-00344063D01*
X-00345588Y00005384D02*
Y00008432D01*
X-00322107Y00006908D02*
X-00319059D01*
X-00320583Y00005384D02*
Y00008432D01*
X-00295606Y00006908D02*
X-00292558D01*
X-00294082Y00005384D02*
Y00008432D01*
X-00272451Y00006908D02*
X-00269403D01*
X-00270927Y00005384D02*
Y00008432D01*
X-00251418Y00006908D02*
X-0024837D01*
X-00249894Y00005384D02*
Y00008432D01*
X-00261874Y0013208D02*
X-00258826D01*
X-0026035Y00130556D02*
Y00133604D01*
X-00246491Y00133001D02*
X-00243443D01*
X-00244967Y00131477D02*
Y00134525D01*
X-0031935Y00115091D02*
X-00316302D01*
X-00317826Y00113567D02*
Y00116615D01*
X-00339344Y00115422D02*
X-00336296D01*
X-0033782Y00113898D02*
Y00116946D01*
X-00298294Y001143D02*
X-00295246D01*
X-0029677Y00112776D02*
Y00115824D01*
X-00324976Y0013208D02*
X-00321928D01*
X-00323452Y00130556D02*
Y00133604D01*
X-00299974Y00131932D02*
X-00296926D01*
X-0029845Y00130408D02*
Y00133456D01*
X-00350774Y0013251D02*
X-00347726D01*
X-0034925Y00130986D02*
Y00134034D01*
X-00350774Y00163787D02*
X-00347726D01*
X-0034925Y00162262D02*
Y0016531D01*
X-00301956Y00164159D02*
X-00298908D01*
X-00300432Y00162635D02*
Y00165683D01*
X-00293624Y00181315D02*
X-00290576D01*
X-002921Y00179791D02*
Y00182839D01*
X-00274474Y00181516D02*
X-00271426D01*
X-0027295Y00179992D02*
Y0018304D01*
X-00261874Y0016095D02*
X-00258826D01*
X-0026035Y00159426D02*
Y00162474D01*
X-00246491Y0017526D02*
X-00243443D01*
X-00244967Y00173736D02*
Y00176784D01*
X-00246634Y00190829D02*
X-00243586D01*
X-0024511Y00189305D02*
Y00192353D01*
X-00245511Y00206715D02*
X-00242463D01*
X-00243988Y00205191D02*
Y00208239D01*
X-00312674Y00198678D02*
X-00309626D01*
X-0031115Y00197154D02*
Y00200202D01*
X-00299974Y0021209D02*
X-00296926D01*
X-0029845Y00210566D02*
Y00213614D01*
X-00285967Y0022606D02*
X-00282919D01*
X-00284443Y00224536D02*
Y00227584D01*
X-00249174Y00240742D02*
X-00246126D01*
X-0024765Y00239218D02*
Y00242266D01*
X-00271181Y0024003D02*
X-00268133D01*
X-00269657Y00238506D02*
Y00241554D01*
X-00324976Y00186443D02*
X-00321928D01*
X-00323452Y00184919D02*
Y00187967D01*
X-00362204Y00176928D02*
X-00359156D01*
X-0036068Y00175404D02*
Y00178452D01*
X-00400304Y00186443D02*
X-00397256D01*
X-0039878Y00184919D02*
Y00187967D01*
X-00437208Y0022098D02*
X-0043416D01*
X-00435684Y00219456D02*
Y00222504D01*
X-00452337Y0022352D02*
X-00449289D01*
X-00450813Y00221996D02*
Y00225044D01*
X-00465074Y0021209D02*
X-00462026D01*
X-0046355Y00210566D02*
Y00213614D01*
X-00476504Y0020066D02*
X-00473456D01*
X-0047498Y00199136D02*
Y00202184D01*
X-00487934Y00188425D02*
X-00484886D01*
X-0048641Y00186901D02*
Y00189949D01*
X-00488646Y0017145D02*
X-00485598D01*
X-00487122Y00169926D02*
Y00172974D01*
X-00489204Y00131731D02*
X-00486156D01*
X-0048768Y00130207D02*
Y00133255D01*
X-00466344Y00131932D02*
X-00463296D01*
X-0046482Y00130408D02*
Y00133456D01*
X-00359664Y00053488D02*
X-00356616D01*
X-0035814Y00051964D02*
Y00055012D01*
X-00405384Y0012827D02*
X-00402336D01*
X-0040386Y00126746D02*
Y00129794D01*
X-00430149Y00130461D02*
X-00427101D01*
X-00428625Y00128937D02*
Y00131985D01*
X-00428244Y0010922D02*
X-00425196D01*
X-0042672Y00107696D02*
Y00110744D01*
X-00440944Y00096366D02*
X-00437896D01*
X-0043942Y00094842D02*
Y0009789D01*
X-00454914Y00084706D02*
X-00451866D01*
X-0045339Y00083182D02*
Y0008623D01*
X-00490474Y0003937D02*
X-00487426D01*
X-0048895Y00037846D02*
Y00040894D01*
X-00508254Y0005715D02*
X-00505206D01*
X-0050673Y00055626D02*
Y00058674D01*
X-00509524Y0002667D02*
X-00506476D01*
X-00508Y00025146D02*
Y00028194D01*
X-00509524Y0000762D02*
X-00506476D01*
X-00508Y00006096D02*
Y00009144D01*
X-00493014Y0000762D02*
X-00489966D01*
X-0049149Y00006096D02*
Y00009144D01*
X-00416814Y00075636D02*
X-00413766D01*
X-0041529Y00074112D02*
Y0007716D01*
X-00428244Y00063654D02*
X-00425196D01*
X-0042672Y0006213D02*
Y00065178D01*
X-00219964Y00295093D02*
X-00216916D01*
X-0021844Y00293569D02*
Y00296617D01*
X-00191661Y00295093D02*
X-00188613D01*
X-00190137Y00293569D02*
Y00296617D01*
X-00163374Y0029591D02*
X-00160326D01*
X-0016185Y00294386D02*
Y00297434D01*
X-00176784Y00286011D02*
X-00173736D01*
X-0017526Y00284487D02*
Y00287535D01*
X-00179512Y00271187D02*
X-00176464D01*
X-00177988Y00269663D02*
Y00272711D01*
X-00179512Y0025527D02*
X-00176464D01*
X-00177988Y00253746D02*
Y00256794D01*
X-00199644Y00246165D02*
X-00196596D01*
X-0019812Y00244641D02*
Y00247689D01*
X-00185442Y0023241D02*
X-00182394D01*
X-00183918Y00230886D02*
Y00233934D01*
X-00070104Y00258704D02*
X-00067056D01*
X-0006858Y00257181D02*
Y00260229D01*
X-00064988Y0024003D02*
X-0006194D01*
X-00063464Y00238506D02*
Y00241554D01*
X-00063718Y0021971D02*
X-0006067D01*
X-00062194Y00218186D02*
Y00221234D01*
X-00088032Y0016764D02*
X-00084984D01*
X-00086508Y00166116D02*
Y00169164D01*
X-00062484Y00168198D02*
X-00059436D01*
X-0006096Y00166674D02*
Y00169722D01*
X-00047244Y00172162D02*
X-00044196D01*
X-0004572Y00170638D02*
Y00173686D01*
X-00030292Y0019304D02*
X-00027244D01*
X-00028768Y00191516D02*
Y00194564D01*
X-00025506Y0017018D02*
X-00022459D01*
X-00023983Y00168656D02*
Y00171704D01*
X-00015494Y00205445D02*
X-00012446D01*
X-0001397Y00203921D02*
Y00206969D01*
X-00015869Y00189868D02*
X-00012821D01*
X-00014345Y00188344D02*
Y00191392D01*
X-00057404Y00280372D02*
X-00054356D01*
X-0005588Y00278848D02*
Y00281896D01*
X-00014599Y0029591D02*
X-00011551D01*
X-00013075Y00294386D02*
Y00297434D01*
X-00015869Y00254D02*
X-00012821D01*
X-00014345Y00252476D02*
Y00255524D01*
X-00049566Y0026289D02*
X-00046518D01*
X-00048042Y00261366D02*
Y00264414D01*
X-00084074Y00278528D02*
X-00081026D01*
X-0008255Y00277004D02*
Y00280052D01*
X-00084074Y00263838D02*
X-00081026D01*
X-0008255Y00262314D02*
Y00265362D01*
X-00091694Y0025467D02*
X-00088646D01*
X-0009017Y00253146D02*
Y00256194D01*
X-00104471Y0025146D02*
X-00101423D01*
X-00102947Y00249936D02*
Y00252984D01*
X-00110744Y0023876D02*
X-00107696D01*
X-0010922Y00237236D02*
Y00240284D01*
X-00110713Y0021844D02*
X-00107665D01*
X-00109189Y00216916D02*
Y00219964D01*
X-00111199Y0020066D02*
X-00108151D01*
X-00109675Y00199136D02*
Y00202184D01*
X-00124714Y00188289D02*
X-00121666D01*
X-0012319Y00186765D02*
Y00189813D01*
X-00137414Y0017653D02*
X-00134366D01*
X-0013589Y00175006D02*
Y00178054D01*
X-00183175Y001778D02*
X-00180127D01*
X-00181651Y00176276D02*
Y00179324D01*
X-00201209Y0017145D02*
X-00198161D01*
X-00199685Y00169926D02*
Y00172974D01*
X-00201209Y00189559D02*
X-00198161D01*
X-00199685Y00188035D02*
Y00191083D01*
X-00218694Y00183821D02*
X-00215646D01*
X-0021717Y00182297D02*
Y00185345D01*
X-00218694Y0021336D02*
X-00215646D01*
X-0021717Y00211836D02*
Y00214884D01*
X-00218694Y00152574D02*
X-00215646D01*
X-0021717Y0015105D02*
Y00154098D01*
X-00207264Y00081733D02*
X-00204216D01*
X-0020574Y00080209D02*
Y00083257D01*
X-00145034Y0012319D02*
X-00141986D01*
X-0014351Y00121666D02*
Y00124714D01*
X-00125984Y0012319D02*
X-00122936D01*
X-0012446Y00121666D02*
Y00124714D01*
X-00164639Y00100349D02*
X-00161591D01*
X-00163115Y00098825D02*
Y00101873D01*
X-00153924Y00089508D02*
X-00150876D01*
X-001524Y00087984D02*
Y00091032D01*
X-00133604Y00082221D02*
X-00130556D01*
X-0013208Y00080697D02*
Y00083745D01*
X-00205994Y00116545D02*
X-00202946D01*
X-0020447Y00115021D02*
Y00118069D01*
X-00194564Y0011176D02*
X-00191516D01*
X-0019304Y00110236D02*
Y00113284D01*
X-00179324Y0011176D02*
X-00176276D01*
X-001778Y00110236D02*
Y00113284D01*
X-00168301Y0012319D02*
X-00165253D01*
X-00166777Y00121666D02*
Y00124714D01*
X-0016181Y00139756D02*
X-00158762D01*
X-00160286Y00138232D02*
Y0014128D01*
X-00145034Y001397D02*
X-00141986D01*
X-0014351Y00138176D02*
Y00141224D01*
X-00125984Y00140563D02*
X-00122936D01*
X-0012446Y00139039D02*
Y00142087D01*
X-00023114Y00066714D02*
X-00020066D01*
X-0002159Y0006519D02*
Y00068238D01*
X-00047244Y00066714D02*
X-00044196D01*
X-0004572Y0006519D02*
Y00068238D01*
X-00072644Y00066714D02*
X-00069596D01*
X-0007112Y0006519D02*
Y00068238D01*
X-0009933Y00066714D02*
X-00096282D01*
X-00097806Y0006519D02*
Y00068238D01*
X-0009933Y0008763D02*
X-00096282D01*
X-00097806Y00086106D02*
Y00089154D01*
X-00072644Y0008763D02*
X-00069596D01*
X-0007112Y00086106D02*
Y00089154D01*
X-00047244Y0008763D02*
X-00044196D01*
X-0004572Y00086106D02*
Y00089154D01*
X-00023114Y0008763D02*
X-00020066D01*
X-0002159Y00086106D02*
Y00089154D01*
X-00023114Y0010795D02*
X-00020066D01*
X-0002159Y00106426D02*
Y00109474D01*
X-00047244Y0010795D02*
X-00044196D01*
X-0004572Y00106426D02*
Y00109474D01*
X-00072644Y0010795D02*
X-00069596D01*
X-0007112Y00106426D02*
Y00109474D01*
X-0009933Y0010795D02*
X-00096282D01*
X-00097806Y00106426D02*
Y00109474D01*
X-0009933Y0012827D02*
X-00096282D01*
X-00097806Y00126746D02*
Y00129794D01*
X-00072644Y0012827D02*
X-00069596D01*
X-0007112Y00126746D02*
Y00129794D01*
X-00047244Y0012827D02*
X-00044196D01*
X-0004572Y00126746D02*
Y00129794D01*
X-00023114Y0012827D02*
X-00020066D01*
X-0002159Y00126746D02*
Y00129794D01*
X-00072644Y00149225D02*
X-00069596D01*
X-0007112Y00147701D02*
Y00150749D01*
X-0009933Y00149225D02*
X-00096282D01*
X-00097806Y00147701D02*
Y00150749D01*
X-00047244Y00149225D02*
X-00044196D01*
X-0004572Y00147701D02*
Y00150749D01*
X-00023114Y00149225D02*
X-00020066D01*
X-0002159Y00147701D02*
Y00150749D01*
X-00219964Y000508D02*
X-00216916D01*
X-0021844Y00049276D02*
Y00052324D01*
X-00219964Y0003683D02*
X-00216916D01*
X-0021844Y00035306D02*
Y00038354D01*
X-00219964Y00020541D02*
X-00216916D01*
X-0021844Y00019017D02*
Y00022065D01*
X-00205994Y0000889D02*
X-00202946D01*
X-0020447Y00007366D02*
Y00010414D01*
X-0018796Y0000889D02*
X-00184912D01*
X-00186436Y00007366D02*
Y00010414D01*
X-00075184Y0000889D02*
X-00072136D01*
X-0007366Y00007366D02*
Y00010414D01*
X-00057404Y0000889D02*
X-00054356D01*
X-0005588Y00007366D02*
Y00010414D01*
X-00038354Y0000889D02*
X-00035306D01*
X-0003683Y00007366D02*
Y00010414D01*
X-00021844Y0000889D02*
X-00018796D01*
X-0002032Y00007366D02*
Y00010414D01*
X-00010414Y000508D02*
X-00007366D01*
X-0000889Y00049276D02*
Y00052324D01*
X-00010414Y0003556D02*
X-00007366D01*
X-0000889Y00034036D02*
Y00037084D01*
X-00010414Y00020541D02*
X-00007366D01*
X-0000889Y00019017D02*
Y00022065D01*
X-00169164Y0001016D02*
X-00166116D01*
X-0016764Y00008636D02*
Y00011684D01*
X-00164084Y0001524D02*
X-00161036D01*
X-0016256Y00013716D02*
Y00016764D01*
X-00169164Y0002032D02*
X-00166116D01*
X-0016764Y00018796D02*
Y00021844D01*
X-00164084Y000254D02*
X-00161036D01*
X-0016256Y00023876D02*
Y00026924D01*
X-00169164Y0003048D02*
X-00166116D01*
X-0016764Y00028956D02*
Y00032004D01*
X-00164084Y0003556D02*
X-00161036D01*
X-0016256Y00034036D02*
Y00037084D01*
X-00169164Y0004064D02*
X-00166116D01*
X-0016764Y00039116D02*
Y00042164D01*
X-00138684Y0001016D02*
X-00135636D01*
X-0013716Y00008636D02*
Y00011684D01*
X-00143764Y0001524D02*
X-00140716D01*
X-0014224Y00013716D02*
Y00016764D01*
X-00138684Y0002032D02*
X-00135636D01*
X-0013716Y00018796D02*
Y00021844D01*
X-00143764Y000254D02*
X-00140716D01*
X-0014224Y00023876D02*
Y00026924D01*
X-00138684Y0003048D02*
X-00135636D01*
X-0013716Y00028956D02*
Y00032004D01*
X-00143764Y0003556D02*
X-00140716D01*
X-0014224Y00034036D02*
Y00037084D01*
X-00138684Y0004064D02*
X-00135636D01*
X-0013716Y00039116D02*
Y00042164D01*
X-00118364Y0001016D02*
X-00115316D01*
X-0011684Y00008636D02*
Y00011684D01*
X-00113284Y0001524D02*
X-00110236D01*
X-0011176Y00013716D02*
Y00016764D01*
X-00118847Y0002032D02*
X-00115799D01*
X-00117323Y00018796D02*
Y00021844D01*
X-00113284Y000254D02*
X-00110236D01*
X-0011176Y00023876D02*
Y00026924D01*
X-00118847Y0003048D02*
X-00115799D01*
X-00117323Y00028956D02*
Y00032004D01*
X-00113195Y0003556D02*
X-00110147D01*
X-00111671Y00034036D02*
Y00037084D01*
X-00118364Y0004064D02*
X-00115316D01*
X-0011684Y00039116D02*
Y00042164D01*
X-00419354Y0001016D02*
X-00416306D01*
X-0041783Y00008636D02*
Y00011684D01*
X-00424434Y00014701D02*
X-00421386D01*
X-0042291Y00013177D02*
Y00016225D01*
X-00419354Y00020541D02*
X-00416306D01*
X-0041783Y00019017D02*
Y00022065D01*
X-00424434Y00026162D02*
X-00421386D01*
X-0042291Y00024638D02*
Y00027686D01*
X-00399034Y0001016D02*
X-00395986D01*
X-0039751Y00008636D02*
Y00011684D01*
X-00393954Y0001524D02*
X-00390906D01*
X-0039243Y00013716D02*
Y00016764D01*
X-00399034Y0002032D02*
X-00395986D01*
X-0039751Y00018796D02*
Y00021844D01*
X-00393954Y000254D02*
X-00390906D01*
X-0039243Y00023876D02*
Y00026924D01*
X-00399034Y0003048D02*
X-00395986D01*
X-0039751Y00028956D02*
Y00032004D01*
X-00393954Y0003556D02*
X-00390906D01*
X-0039243Y00034036D02*
Y00037084D01*
X-00399034Y0004064D02*
X-00395986D01*
X-0039751Y00039116D02*
Y00042164D01*
X-00419354Y0003048D02*
X-00416306D01*
X-0041783Y00028956D02*
Y00032004D01*
X-00424434Y0003556D02*
X-00421386D01*
X-0042291Y00034036D02*
Y00037084D01*
X-00419354Y0004064D02*
X-00416306D01*
X-0041783Y00039116D02*
Y00042164D01*
X-00449834Y0001016D02*
X-00446786D01*
X-0044831Y00008636D02*
Y00011684D01*
X-00444754Y0001524D02*
X-00441706D01*
X-0044323Y00013716D02*
Y00016764D01*
X-00449834Y0002032D02*
X-00446786D01*
X-0044831Y00018796D02*
Y00021844D01*
X-00444754Y000254D02*
X-00441706D01*
X-0044323Y00023876D02*
Y00026924D01*
X-00449834Y0003048D02*
X-00446786D01*
X-0044831Y00028956D02*
Y00032004D01*
X-00444754Y0003556D02*
X-00441706D01*
X-0044323Y00034036D02*
Y00037084D01*
X-00449834Y0004064D02*
X-00446786D01*
X-0044831Y00039116D02*
Y00042164D01*
X-00470154Y0001016D02*
X-00467106D01*
X-0046863Y00008636D02*
Y00011684D01*
X-00475234Y0001524D02*
X-00472186D01*
X-0047371Y00013716D02*
Y00016764D01*
X-00470154Y0002032D02*
X-00467106D01*
X-0046863Y00018796D02*
Y00021844D01*
X-00475234Y000254D02*
X-00472186D01*
X-0047371Y00023876D02*
Y00026924D01*
X-00470154Y0003048D02*
X-00467106D01*
X-0046863Y00028956D02*
Y00032004D01*
X-00475234Y0003556D02*
X-00472186D01*
X-0047371Y00034036D02*
Y00037084D01*
X-00470154Y0004064D02*
X-00467106D01*
X-0046863Y00039116D02*
Y00042164D01*
X-00087884Y0001016D02*
X-00084836D01*
X-0008636Y00008636D02*
Y00011684D01*
X-00092964Y0001524D02*
X-00089916D01*
X-0009144Y00013716D02*
Y00016764D01*
X-00087884Y0002032D02*
X-00084836D01*
X-0008636Y00018796D02*
Y00021844D01*
X-00092964Y000254D02*
X-00089916D01*
X-0009144Y00023876D02*
Y00026924D01*
X-00087884Y0003048D02*
X-00084836D01*
X-0008636Y00028956D02*
Y00032004D01*
X-00092964Y0003556D02*
X-00089916D01*
X-0009144Y00034036D02*
Y00037084D01*
X-00087884Y0004064D02*
X-00084836D01*
X-0008636Y00039116D02*
Y00042164D01*
M02*
