G04*
G04 #@! TF.GenerationSoftware,Altium Limited,Altium Designer,19.0.4 (130)*
G04*
G04 Layer_Color=2752767*
%FSTAX44Y44*%
%MOMM*%
G71*
G01*
G75*
%ADD10C,0.2540*%
%ADD11C,0.0508*%
%ADD12C,0.0677*%
D10*
X0Y0029845D02*
G03*
X-0000635Y003048I-0000635J0D01*
G01*
X-0051181D02*
G03*
X-0051816Y0029845I0J-0000635D01*
G01*
X0Y0026797D02*
Y0029845D01*
Y0D02*
Y0026797D01*
X-0051181Y003048D02*
X-0000635D01*
X-0051816Y0D02*
Y0029845D01*
Y0D02*
X0D01*
D11*
X-00253492Y00022098D02*
Y00026162D01*
X-00249428D01*
Y00022098D01*
X-00253492D01*
X-00328422D02*
Y00026162D01*
X-00324358D01*
Y00022098D01*
X-00328422D01*
X-0010608Y00272288D02*
X-00108112Y00276352D01*
X-00104048D01*
X-0010608Y00272288D01*
X-0003108D02*
X-00033112Y00276352D01*
X-00029048D01*
X-0003108Y00272288D01*
X-0015875Y00070358D02*
X-00157734Y00071374D01*
X-00156718D01*
X-00157734Y0007239D01*
X-00156718Y00073406D01*
X-00157734D01*
X-0015875Y00074422D01*
X-00159766Y00073406D01*
X-00160782D01*
X-00159766Y0007239D01*
X-00160782Y00071374D01*
X-00159766D01*
X-0015875Y00070358D01*
Y00171958D02*
X-00157734Y00172974D01*
X-00156718D01*
X-00157734Y0017399D01*
X-00156718Y00175006D01*
X-00157734D01*
X-0015875Y00176022D01*
X-00159766Y00175006D01*
X-00160782D01*
X-00159766Y0017399D01*
X-00160782Y00172974D01*
X-00159766D01*
X-0015875Y00171958D01*
X-0036195Y00146558D02*
X-00360934Y00147574D01*
X-00359918D01*
X-00360934Y0014859D01*
X-00359918Y00149606D01*
X-00360934D01*
X-0036195Y00150622D01*
X-00362966Y00149606D01*
X-00363982D01*
X-00362966Y0014859D01*
X-00363982Y00147574D01*
X-00362966D01*
X-0036195Y00146558D01*
Y00197358D02*
X-00360934Y00198374D01*
X-00359918D01*
X-00360934Y0019939D01*
X-00359918Y00200406D01*
X-00360934D01*
X-0036195Y00201422D01*
X-00362966Y00200406D01*
X-00363982D01*
X-00362966Y0019939D01*
X-00363982Y00198374D01*
X-00362966D01*
X-0036195Y00197358D01*
X-0015875Y00273558D02*
X-00157734Y00274574D01*
X-00156718D01*
X-00157734Y0027559D01*
X-00156718Y00276606D01*
X-00157734D01*
X-0015875Y00277622D01*
X-00159766Y00276606D01*
X-00160782D01*
X-00159766Y0027559D01*
X-00160782Y00274574D01*
X-00159766D01*
X-0015875Y00273558D01*
X-0036195D02*
X-00360934Y00274574D01*
X-00359918D01*
X-00360934Y0027559D01*
X-00359918Y00276606D01*
X-00360934D01*
X-0036195Y00277622D01*
X-00362966Y00276606D01*
X-00363982D01*
X-00362966Y0027559D01*
X-00363982Y00274574D01*
X-00362966D01*
X-0036195Y00273558D01*
X-00502412Y00263398D02*
X-00501396Y0026543D01*
X-00502412Y00267462D01*
X-0050038Y00266446D01*
X-00498348Y00267462D01*
X-00499364Y0026543D01*
X-00498348Y00263398D01*
X-0050038Y00264414D01*
X-00502412Y00263398D01*
X-00480822Y00292608D02*
X-00479806Y0029464D01*
X-00480822Y00296672D01*
X-0047879Y00295656D01*
X-00476758Y00296672D01*
X-00477774Y0029464D01*
X-00476758Y00292608D01*
X-0047879Y00293624D01*
X-00480822Y00292608D01*
X-00412242Y00291338D02*
X-00411226Y0029337D01*
X-00412242Y00295402D01*
X-0041021Y00294386D01*
X-00408178Y00295402D01*
X-00409194Y0029337D01*
X-00408178Y00291338D01*
X-0041021Y00292354D01*
X-00412242Y00291338D01*
X-00393192Y00292608D02*
X-00392176Y0029464D01*
X-00393192Y00296672D01*
X-0039116Y00295656D01*
X-00389128Y00296672D01*
X-00390144Y0029464D01*
X-00389128Y00292608D01*
X-0039116Y00293624D01*
X-00393192Y00292608D01*
X-00374142Y00291338D02*
X-00373126Y0029337D01*
X-00374142Y00295402D01*
X-0037211Y00294386D01*
X-00370078Y00295402D01*
X-00371094Y0029337D01*
X-00370078Y00291338D01*
X-0037211Y00292354D01*
X-00374142Y00291338D01*
X-00357632Y00292608D02*
X-00356616Y0029464D01*
X-00357632Y00296672D01*
X-003556Y00295656D01*
X-00353568Y00296672D01*
X-00354584Y0029464D01*
X-00353568Y00292608D01*
X-003556Y00293624D01*
X-00357632Y00292608D01*
X-00333502Y00291338D02*
X-00332486Y0029337D01*
X-00333502Y00295402D01*
X-0033147Y00294386D01*
X-00329438Y00295402D01*
X-00330454Y0029337D01*
X-00329438Y00291338D01*
X-0033147Y00292354D01*
X-00333502Y00291338D01*
X-00315722D02*
X-00314706Y0029337D01*
X-00315722Y00295402D01*
X-0031369Y00294386D01*
X-00311658Y00295402D01*
X-00312674Y0029337D01*
X-00311658Y00291338D01*
X-0031369Y00292354D01*
X-00315722Y00291338D01*
X-00263652Y00035921D02*
X-00262636Y00037953D01*
X-00263652Y00039985D01*
X-0026162Y00038969D01*
X-00259588Y00039985D01*
X-00260604Y00037953D01*
X-00259588Y00035921D01*
X-0026162Y00036937D01*
X-00263652Y00035921D01*
X-00246019Y00039583D02*
X-00245004Y00041615D01*
X-00246019Y00043647D01*
X-00243988Y00042631D01*
X-00241956Y00043647D01*
X-00242971Y00041615D01*
X-00241956Y00039583D01*
X-00243988Y00040599D01*
X-00246019Y00039583D01*
X-00431292Y00178214D02*
X-00430276Y00180246D01*
X-00431292Y00182278D01*
X-0042926Y00181262D01*
X-00427228Y00182278D01*
X-00428244Y00180246D01*
X-00427228Y00178214D01*
X-0042926Y0017923D01*
X-00431292Y00178214D01*
X-00459232Y00177301D02*
X-00458216Y00179333D01*
X-00459232Y00181365D01*
X-004572Y00180349D01*
X-00455168Y00181365D01*
X-00456184Y00179333D01*
X-00455168Y00177301D01*
X-004572Y00178317D01*
X-00459232Y00177301D01*
X-00474472Y00157341D02*
X-00473456Y00159374D01*
X-00474472Y00161406D01*
X-0047244Y00160389D01*
X-00470408Y00161406D01*
X-00471424Y00159374D01*
X-00470408Y00157341D01*
X-0047244Y00158357D01*
X-00474472Y00157341D01*
X-00412242Y00163845D02*
X-00411226Y00165877D01*
X-00412242Y00167909D01*
X-0041021Y00166893D01*
X-00408178Y00167909D01*
X-00409194Y00165877D01*
X-00408178Y00163845D01*
X-0041021Y00164861D01*
X-00412242Y00163845D01*
X-00429652Y00281423D02*
X-00428636Y00283455D01*
X-00429652Y00285487D01*
X-0042762Y00284471D01*
X-00425588Y00285487D01*
X-00426604Y00283455D01*
X-00425588Y00281423D01*
X-0042762Y00282439D01*
X-00429652Y00281423D01*
X-00466852Y00283389D02*
X-00465836Y00285421D01*
X-00466852Y00287453D01*
X-0046482Y00286437D01*
X-00462788Y00287453D01*
X-00463804Y00285421D01*
X-00462788Y00283389D01*
X-0046482Y00284405D01*
X-00466852Y00283389D01*
X-00497184Y00226568D02*
X-00496169Y002286D01*
X-00497184Y00230632D01*
X-00495153Y00229616D01*
X-0049312Y00230632D01*
X-00494137Y002286D01*
X-0049312Y00226568D01*
X-00495153Y00227584D01*
X-00497184Y00226568D01*
X-00479552Y00244348D02*
X-00478536Y0024638D01*
X-00479552Y00248412D01*
X-0047752Y00247396D01*
X-00475488Y00248412D01*
X-00476504Y0024638D01*
X-00475488Y00244348D01*
X-0047752Y00245364D01*
X-00479552Y00244348D01*
X-00465582Y00257606D02*
X-00464566Y00259638D01*
X-00465582Y0026167D01*
X-0046355Y00260654D01*
X-00461518Y0026167D01*
X-00462534Y00259638D01*
X-00461518Y00257606D01*
X-0046355Y00258622D01*
X-00465582Y00257606D01*
X-00430657Y00259588D02*
X-00429641Y0026162D01*
X-00430657Y00263652D01*
X-00428625Y00262636D01*
X-00426593Y00263652D01*
X-00427609Y0026162D01*
X-00426593Y00259588D01*
X-00428625Y00260604D01*
X-00430657Y00259588D01*
X-00417322Y00242607D02*
X-00416306Y00244639D01*
X-00417322Y00246671D01*
X-0041529Y00245655D01*
X-00413258Y00246671D01*
X-00414274Y00244639D01*
X-00413258Y00242607D01*
X-0041529Y00243623D01*
X-00417322Y00242607D01*
X-00394462Y00220628D02*
X-00393446Y0022266D01*
X-00394462Y00224692D01*
X-0039243Y00223676D01*
X-00390398Y00224692D01*
X-00391414Y0022266D01*
X-00390398Y00220628D01*
X-0039243Y00221644D01*
X-00394462Y00220628D01*
X-00362712Y00216966D02*
X-00361696Y00218998D01*
X-00362712Y0022103D01*
X-0036068Y00220014D01*
X-00358648Y0022103D01*
X-00359664Y00218998D01*
X-00358648Y00216966D01*
X-0036068Y00217982D01*
X-00362712Y00216966D01*
X-00330962Y00228813D02*
X-00329946Y00230845D01*
X-00330962Y00232877D01*
X-0032893Y00231861D01*
X-00326898Y00232877D01*
X-00327914Y00230845D01*
X-00326898Y00228813D01*
X-0032893Y00229829D01*
X-00330962Y00228813D01*
X-00316562Y00244133D02*
X-00315546Y00246165D01*
X-00316562Y00248197D01*
X-0031453Y00247181D01*
X-00312498Y00248197D01*
X-00313514Y00246165D01*
X-00312498Y00244133D01*
X-0031453Y00245149D01*
X-00316562Y00244133D01*
X-00300899Y00256301D02*
X-00299883Y00258333D01*
X-00300899Y00260364D01*
X-00298867Y00259349D01*
X-00296835Y00260364D01*
X-00297851Y00258333D01*
X-00296835Y00256301D01*
X-00298867Y00257316D01*
X-00300899Y00256301D01*
X-00301752Y00281423D02*
X-00300736Y00283455D01*
X-00301752Y00285487D01*
X-0029972Y00284471D01*
X-00297688Y00285487D01*
X-00298704Y00283455D01*
X-00297688Y00281423D01*
X-0029972Y00282439D01*
X-00301752Y00281423D01*
X-00264364Y00290068D02*
X-00263348Y002921D01*
X-00264364Y00294132D01*
X-00262332Y00293116D01*
X-002603Y00294132D01*
X-00261316Y002921D01*
X-002603Y00290068D01*
X-00262332Y00291084D01*
X-00264364Y00290068D01*
X-00246019Y00280322D02*
X-00245004Y00282354D01*
X-00246019Y00284386D01*
X-00243988Y0028337D01*
X-00241956Y00284386D01*
X-00242971Y00282354D01*
X-00241956Y00280322D01*
X-00243988Y00281338D01*
X-00246019Y00280322D01*
X-00389382Y00060674D02*
X-00388366Y00062706D01*
X-00389382Y00064738D01*
X-0038735Y00063722D01*
X-00385318Y00064738D01*
X-00386334Y00062706D01*
X-00385318Y00060674D01*
X-0038735Y0006169D01*
X-00389382Y00060674D01*
X-00372872Y00004876D02*
X-00371856Y00006908D01*
X-00372872Y0000894D01*
X-0037084Y00007924D01*
X-00368808Y0000894D01*
X-00369824Y00006908D01*
X-00368808Y00004876D01*
X-0037084Y00005892D01*
X-00372872Y00004876D01*
X-0034762D02*
X-00346604Y00006908D01*
X-0034762Y0000894D01*
X-00345588Y00007924D01*
X-00343555Y0000894D01*
X-00344571Y00006908D01*
X-00343555Y00004876D01*
X-00345588Y00005892D01*
X-0034762Y00004876D01*
X-00322615D02*
X-00321599Y00006908D01*
X-00322615Y0000894D01*
X-00320583Y00007924D01*
X-00318551Y0000894D01*
X-00319567Y00006908D01*
X-00318551Y00004876D01*
X-00320583Y00005892D01*
X-00322615Y00004876D01*
X-00296114D02*
X-00295098Y00006908D01*
X-00296114Y0000894D01*
X-00294082Y00007924D01*
X-0029205Y0000894D01*
X-00293066Y00006908D01*
X-0029205Y00004876D01*
X-00294082Y00005892D01*
X-00296114Y00004876D01*
X-00272959D02*
X-00271943Y00006908D01*
X-00272959Y0000894D01*
X-00270927Y00007924D01*
X-00268895Y0000894D01*
X-00269911Y00006908D01*
X-00268895Y00004876D01*
X-00270927Y00005892D01*
X-00272959Y00004876D01*
X-00251926D02*
X-0025091Y00006908D01*
X-00251926Y0000894D01*
X-00249894Y00007924D01*
X-00247862Y0000894D01*
X-00248878Y00006908D01*
X-00247862Y00004876D01*
X-00249894Y00005892D01*
X-00251926Y00004876D01*
X-00262382Y00130048D02*
X-00261366Y0013208D01*
X-00262382Y00134112D01*
X-0026035Y00133096D01*
X-00258318Y00134112D01*
X-00259334Y0013208D01*
X-00258318Y00130048D01*
X-0026035Y00131064D01*
X-00262382Y00130048D01*
X-00246999Y00130969D02*
X-00245983Y00133001D01*
X-00246999Y00135033D01*
X-00244967Y00134017D01*
X-00242935Y00135033D01*
X-00243951Y00133001D01*
X-00242935Y00130969D01*
X-00244967Y00131985D01*
X-00246999Y00130969D01*
X-00319858Y00113059D02*
X-00318842Y00115091D01*
X-00319858Y00117123D01*
X-00317826Y00116107D01*
X-00315794Y00117123D01*
X-0031681Y00115091D01*
X-00315794Y00113059D01*
X-00317826Y00114075D01*
X-00319858Y00113059D01*
X-00339852Y00113391D02*
X-00338836Y00115422D01*
X-00339852Y00117455D01*
X-0033782Y00116439D01*
X-00335788Y00117455D01*
X-00336804Y00115422D01*
X-00335788Y00113391D01*
X-0033782Y00114406D01*
X-00339852Y00113391D01*
X-00298802Y00112268D02*
X-00297786Y001143D01*
X-00298802Y00116332D01*
X-0029677Y00115316D01*
X-00294738Y00116332D01*
X-00295754Y001143D01*
X-00294738Y00112268D01*
X-0029677Y00113284D01*
X-00298802Y00112268D01*
X-00325484Y00130048D02*
X-00324468Y0013208D01*
X-00325484Y00134112D01*
X-00323452Y00133096D01*
X-0032142Y00134112D01*
X-00322436Y0013208D01*
X-0032142Y00130048D01*
X-00323452Y00131064D01*
X-00325484Y00130048D01*
X-00300482Y00129901D02*
X-00299466Y00131932D01*
X-00300482Y00133965D01*
X-0029845Y00132949D01*
X-00296418Y00133965D01*
X-00297434Y00131932D01*
X-00296418Y00129901D01*
X-0029845Y00130917D01*
X-00300482Y00129901D01*
X-00351282Y00130478D02*
X-00350266Y0013251D01*
X-00351282Y00134542D01*
X-0034925Y00133526D01*
X-00347218Y00134542D01*
X-00348234Y0013251D01*
X-00347218Y00130478D01*
X-0034925Y00131494D01*
X-00351282Y00130478D01*
Y00161754D02*
X-00350266Y00163787D01*
X-00351282Y00165819D01*
X-0034925Y00164802D01*
X-00347218Y00165819D01*
X-00348234Y00163787D01*
X-00347218Y00161754D01*
X-0034925Y00162771D01*
X-00351282Y00161754D01*
X-00302464Y00162127D02*
X-00301448Y00164159D01*
X-00302464Y00166191D01*
X-00300432Y00165175D01*
X-002984Y00166191D01*
X-00299416Y00164159D01*
X-002984Y00162127D01*
X-00300432Y00163143D01*
X-00302464Y00162127D01*
X-00294132Y00179283D02*
X-00293116Y00181315D01*
X-00294132Y00183347D01*
X-002921Y00182331D01*
X-00290068Y00183347D01*
X-00291084Y00181315D01*
X-00290068Y00179283D01*
X-002921Y00180299D01*
X-00294132Y00179283D01*
X-00274982Y00179484D02*
X-00273966Y00181516D01*
X-00274982Y00183548D01*
X-0027295Y00182532D01*
X-00270918Y00183548D01*
X-00271934Y00181516D01*
X-00270918Y00179484D01*
X-0027295Y001805D01*
X-00274982Y00179484D01*
X-00262382Y00158918D02*
X-00261366Y0016095D01*
X-00262382Y00162982D01*
X-0026035Y00161966D01*
X-00258318Y00162982D01*
X-00259334Y0016095D01*
X-00258318Y00158918D01*
X-0026035Y00159934D01*
X-00262382Y00158918D01*
X-00246999Y00173228D02*
X-00245983Y0017526D01*
X-00246999Y00177292D01*
X-00244967Y00176276D01*
X-00242935Y00177292D01*
X-00243951Y0017526D01*
X-00242935Y00173228D01*
X-00244967Y00174244D01*
X-00246999Y00173228D01*
X-00247142Y00188797D02*
X-00246126Y00190829D01*
X-00247142Y00192861D01*
X-0024511Y00191845D01*
X-00243078Y00192861D01*
X-00244094Y00190829D01*
X-00243078Y00188797D01*
X-0024511Y00189813D01*
X-00247142Y00188797D01*
X-00246019Y00204683D02*
X-00245004Y00206715D01*
X-00246019Y00208747D01*
X-00243988Y00207731D01*
X-00241956Y00208747D01*
X-00242971Y00206715D01*
X-00241956Y00204683D01*
X-00243988Y00205699D01*
X-00246019Y00204683D01*
X-00313182Y00196646D02*
X-00312166Y00198678D01*
X-00313182Y0020071D01*
X-0031115Y00199694D01*
X-00309118Y0020071D01*
X-00310134Y00198678D01*
X-00309118Y00196646D01*
X-0031115Y00197662D01*
X-00313182Y00196646D01*
X-00300482Y00210058D02*
X-00299466Y0021209D01*
X-00300482Y00214122D01*
X-0029845Y00213106D01*
X-00296418Y00214122D01*
X-00297434Y0021209D01*
X-00296418Y00210058D01*
X-0029845Y00211074D01*
X-00300482Y00210058D01*
X-00286475Y00224028D02*
X-00285459Y0022606D01*
X-00286475Y00228092D01*
X-00284443Y00227076D01*
X-00282411Y00228092D01*
X-00283427Y0022606D01*
X-00282411Y00224028D01*
X-00284443Y00225044D01*
X-00286475Y00224028D01*
X-00249682Y0023871D02*
X-00248666Y00240742D01*
X-00249682Y00242774D01*
X-0024765Y00241758D01*
X-00245618Y00242774D01*
X-00246634Y00240742D01*
X-00245618Y0023871D01*
X-0024765Y00239726D01*
X-00249682Y0023871D01*
X-00271689Y00237998D02*
X-00270673Y0024003D01*
X-00271689Y00242062D01*
X-00269657Y00241046D01*
X-00267625Y00242062D01*
X-00268641Y0024003D01*
X-00267625Y00237998D01*
X-00269657Y00239014D01*
X-00271689Y00237998D01*
X-00325484Y00184411D02*
X-00324468Y00186443D01*
X-00325484Y00188475D01*
X-00323452Y00187459D01*
X-0032142Y00188475D01*
X-00322436Y00186443D01*
X-0032142Y00184411D01*
X-00323452Y00185427D01*
X-00325484Y00184411D01*
X-00362712Y00174896D02*
X-00361696Y00176928D01*
X-00362712Y0017896D01*
X-0036068Y00177944D01*
X-00358648Y0017896D01*
X-00359664Y00176928D01*
X-00358648Y00174896D01*
X-0036068Y00175912D01*
X-00362712Y00174896D01*
X-00400812Y00184411D02*
X-00399796Y00186443D01*
X-00400812Y00188475D01*
X-0039878Y00187459D01*
X-00396748Y00188475D01*
X-00397764Y00186443D01*
X-00396748Y00184411D01*
X-0039878Y00185427D01*
X-00400812Y00184411D01*
X-00437716Y00218948D02*
X-004367Y0022098D01*
X-00437716Y00223012D01*
X-00435684Y00221996D01*
X-00433652Y00223012D01*
X-00434668Y0022098D01*
X-00433652Y00218948D01*
X-00435684Y00219964D01*
X-00437716Y00218948D01*
X-00452845Y00221488D02*
X-00451829Y0022352D01*
X-00452845Y00225552D01*
X-00450813Y00224536D01*
X-00448781Y00225552D01*
X-00449797Y0022352D01*
X-00448781Y00221488D01*
X-00450813Y00222504D01*
X-00452845Y00221488D01*
X-00465582Y00210058D02*
X-00464566Y0021209D01*
X-00465582Y00214122D01*
X-0046355Y00213106D01*
X-00461518Y00214122D01*
X-00462534Y0021209D01*
X-00461518Y00210058D01*
X-0046355Y00211074D01*
X-00465582Y00210058D01*
X-00477012Y00198628D02*
X-00475996Y0020066D01*
X-00477012Y00202692D01*
X-0047498Y00201676D01*
X-00472948Y00202692D01*
X-00473964Y0020066D01*
X-00472948Y00198628D01*
X-0047498Y00199644D01*
X-00477012Y00198628D01*
X-00488442Y00186393D02*
X-00487426Y00188425D01*
X-00488442Y00190457D01*
X-0048641Y00189441D01*
X-00484378Y00190457D01*
X-00485394Y00188425D01*
X-00484378Y00186393D01*
X-0048641Y00187409D01*
X-00488442Y00186393D01*
X-00489154Y00169418D02*
X-00488138Y0017145D01*
X-00489154Y00173482D01*
X-00487122Y00172466D01*
X-0048509Y00173482D01*
X-00486106Y0017145D01*
X-0048509Y00169418D01*
X-00487122Y00170434D01*
X-00489154Y00169418D01*
X-00489712Y00129699D02*
X-00488696Y00131731D01*
X-00489712Y00133763D01*
X-0048768Y00132747D01*
X-00485648Y00133763D01*
X-00486664Y00131731D01*
X-00485648Y00129699D01*
X-0048768Y00130715D01*
X-00489712Y00129699D01*
X-00466852Y00129901D02*
X-00465836Y00131932D01*
X-00466852Y00133965D01*
X-0046482Y00132949D01*
X-00462788Y00133965D01*
X-00463804Y00131932D01*
X-00462788Y00129901D01*
X-0046482Y00130917D01*
X-00466852Y00129901D01*
X-00360172Y00051455D02*
X-00359156Y00053488D01*
X-00360172Y00055519D01*
X-0035814Y00054503D01*
X-00356108Y00055519D01*
X-00357124Y00053488D01*
X-00356108Y00051455D01*
X-0035814Y00052471D01*
X-00360172Y00051455D01*
X-00405892Y00126238D02*
X-00404876Y0012827D01*
X-00405892Y00130302D01*
X-0040386Y00129286D01*
X-00401828Y00130302D01*
X-00402844Y0012827D01*
X-00401828Y00126238D01*
X-0040386Y00127254D01*
X-00405892Y00126238D01*
X-00430657Y00128429D02*
X-00429641Y00130461D01*
X-00430657Y00132493D01*
X-00428625Y00131477D01*
X-00426593Y00132493D01*
X-00427609Y00130461D01*
X-00426593Y00128429D01*
X-00428625Y00129445D01*
X-00430657Y00128429D01*
X-00428752Y00107188D02*
X-00427736Y0010922D01*
X-00428752Y00111252D01*
X-0042672Y00110236D01*
X-00424688Y00111252D01*
X-00425704Y0010922D01*
X-00424688Y00107188D01*
X-0042672Y00108204D01*
X-00428752Y00107188D01*
X-00441452Y00094334D02*
X-00440436Y00096366D01*
X-00441452Y00098398D01*
X-0043942Y00097382D01*
X-00437388Y00098398D01*
X-00438404Y00096366D01*
X-00437388Y00094334D01*
X-0043942Y0009535D01*
X-00441452Y00094334D01*
X-00455422Y00082674D02*
X-00454406Y00084706D01*
X-00455422Y00086738D01*
X-0045339Y00085722D01*
X-00451358Y00086738D01*
X-00452374Y00084706D01*
X-00451358Y00082674D01*
X-0045339Y0008369D01*
X-00455422Y00082674D01*
X-00490982Y00037338D02*
X-00489966Y0003937D01*
X-00490982Y00041402D01*
X-0048895Y00040386D01*
X-00486918Y00041402D01*
X-00487934Y0003937D01*
X-00486918Y00037338D01*
X-0048895Y00038354D01*
X-00490982Y00037338D01*
X-00508762Y00055118D02*
X-00507746Y0005715D01*
X-00508762Y00059182D01*
X-0050673Y00058166D01*
X-00504698Y00059182D01*
X-00505714Y0005715D01*
X-00504698Y00055118D01*
X-0050673Y00056134D01*
X-00508762Y00055118D01*
X-00510032Y00024638D02*
X-00509016Y0002667D01*
X-00510032Y00028702D01*
X-00508Y00027686D01*
X-00505968Y00028702D01*
X-00506984Y0002667D01*
X-00505968Y00024638D01*
X-00508Y00025654D01*
X-00510032Y00024638D01*
Y00005588D02*
X-00509016Y0000762D01*
X-00510032Y00009652D01*
X-00508Y00008636D01*
X-00505968Y00009652D01*
X-00506984Y0000762D01*
X-00505968Y00005588D01*
X-00508Y00006604D01*
X-00510032Y00005588D01*
X-00493522D02*
X-00492506Y0000762D01*
X-00493522Y00009652D01*
X-0049149Y00008636D01*
X-00489458Y00009652D01*
X-00490474Y0000762D01*
X-00489458Y00005588D01*
X-0049149Y00006604D01*
X-00493522Y00005588D01*
X-00417322Y00073604D02*
X-00416306Y00075636D01*
X-00417322Y00077668D01*
X-0041529Y00076652D01*
X-00413258Y00077668D01*
X-00414274Y00075636D01*
X-00413258Y00073604D01*
X-0041529Y0007462D01*
X-00417322Y00073604D01*
X-00428752Y00061622D02*
X-00427736Y00063654D01*
X-00428752Y00065686D01*
X-0042672Y0006467D01*
X-00424688Y00065686D01*
X-00425704Y00063654D01*
X-00424688Y00061622D01*
X-0042672Y00062638D01*
X-00428752Y00061622D01*
X-00220472Y00293061D02*
X-00219456Y00295093D01*
X-00220472Y00297125D01*
X-0021844Y00296109D01*
X-00216408Y00297125D01*
X-00217424Y00295093D01*
X-00216408Y00293061D01*
X-0021844Y00294077D01*
X-00220472Y00293061D01*
X-00192169D02*
X-00191153Y00295093D01*
X-00192169Y00297125D01*
X-00190137Y00296109D01*
X-00188105Y00297125D01*
X-00189121Y00295093D01*
X-00188105Y00293061D01*
X-00190137Y00294077D01*
X-00192169Y00293061D01*
X-00163882Y00293878D02*
X-00162866Y0029591D01*
X-00163882Y00297942D01*
X-0016185Y00296926D01*
X-00159818Y00297942D01*
X-00160834Y0029591D01*
X-00159818Y00293878D01*
X-0016185Y00294894D01*
X-00163882Y00293878D01*
X-00177292Y00283979D02*
X-00176276Y00286011D01*
X-00177292Y00288043D01*
X-0017526Y00287027D01*
X-00173228Y00288043D01*
X-00174244Y00286011D01*
X-00173228Y00283979D01*
X-0017526Y00284995D01*
X-00177292Y00283979D01*
X-0018002Y00269155D02*
X-00179004Y00271187D01*
X-0018002Y00273219D01*
X-00177988Y00272203D01*
X-00175956Y00273219D01*
X-00176972Y00271187D01*
X-00175956Y00269155D01*
X-00177988Y00270171D01*
X-0018002Y00269155D01*
Y00253238D02*
X-00179004Y0025527D01*
X-0018002Y00257302D01*
X-00177988Y00256286D01*
X-00175956Y00257302D01*
X-00176972Y0025527D01*
X-00175956Y00253238D01*
X-00177988Y00254254D01*
X-0018002Y00253238D01*
X-00200152Y00244133D02*
X-00199136Y00246165D01*
X-00200152Y00248197D01*
X-0019812Y00247181D01*
X-00196088Y00248197D01*
X-00197104Y00246165D01*
X-00196088Y00244133D01*
X-0019812Y00245149D01*
X-00200152Y00244133D01*
X-0018595Y00230378D02*
X-00184934Y0023241D01*
X-0018595Y00234442D01*
X-00183918Y00233426D01*
X-00181886Y00234442D01*
X-00182902Y0023241D01*
X-00181886Y00230378D01*
X-00183918Y00231394D01*
X-0018595Y00230378D01*
X-00070612Y00256672D02*
X-00069596Y00258704D01*
X-00070612Y00260737D01*
X-0006858Y0025972D01*
X-00066548Y00260737D01*
X-00067564Y00258704D01*
X-00066548Y00256672D01*
X-0006858Y00257689D01*
X-00070612Y00256672D01*
X-00065496Y00237998D02*
X-0006448Y0024003D01*
X-00065496Y00242062D01*
X-00063464Y00241046D01*
X-00061432Y00242062D01*
X-00062448Y0024003D01*
X-00061432Y00237998D01*
X-00063464Y00239014D01*
X-00065496Y00237998D01*
X-00064226Y00217678D02*
X-0006321Y0021971D01*
X-00064226Y00221742D01*
X-00062194Y00220726D01*
X-00060162Y00221742D01*
X-00061178Y0021971D01*
X-00060162Y00217678D01*
X-00062194Y00218694D01*
X-00064226Y00217678D01*
X-00088539Y00165608D02*
X-00087523Y0016764D01*
X-00088539Y00169672D01*
X-00086508Y00168656D01*
X-00084475Y00169672D01*
X-00085492Y0016764D01*
X-00084475Y00165608D01*
X-00086508Y00166624D01*
X-00088539Y00165608D01*
X-00062992Y00166166D02*
X-00061976Y00168198D01*
X-00062992Y0017023D01*
X-0006096Y00169214D01*
X-00058928Y0017023D01*
X-00059944Y00168198D01*
X-00058928Y00166166D01*
X-0006096Y00167182D01*
X-00062992Y00166166D01*
X-00047752Y0017013D02*
X-00046736Y00172162D01*
X-00047752Y00174194D01*
X-0004572Y00173178D01*
X-00043688Y00174194D01*
X-00044704Y00172162D01*
X-00043688Y0017013D01*
X-0004572Y00171146D01*
X-00047752Y0017013D01*
X-000308Y00191008D02*
X-00029784Y0019304D01*
X-000308Y00195072D01*
X-00028768Y00194056D01*
X-00026736Y00195072D01*
X-00027752Y0019304D01*
X-00026736Y00191008D01*
X-00028768Y00192024D01*
X-000308Y00191008D01*
X-00026014Y00168148D02*
X-00024999Y0017018D01*
X-00026014Y00172212D01*
X-00023983Y00171196D01*
X-00021951Y00172212D01*
X-00022966Y0017018D01*
X-00021951Y00168148D01*
X-00023983Y00169164D01*
X-00026014Y00168148D01*
X-00016002Y00203413D02*
X-00014986Y00205445D01*
X-00016002Y00207477D01*
X-0001397Y00206461D01*
X-00011938Y00207477D01*
X-00012954Y00205445D01*
X-00011938Y00203413D01*
X-0001397Y00204429D01*
X-00016002Y00203413D01*
X-00016377Y00187836D02*
X-00015361Y00189868D01*
X-00016377Y001919D01*
X-00014345Y00190884D01*
X-00012313Y001919D01*
X-00013329Y00189868D01*
X-00012313Y00187836D01*
X-00014345Y00188852D01*
X-00016377Y00187836D01*
X-00057912Y0027834D02*
X-00056896Y00280372D01*
X-00057912Y00282404D01*
X-0005588Y00281388D01*
X-00053848Y00282404D01*
X-00054864Y00280372D01*
X-00053848Y0027834D01*
X-0005588Y00279356D01*
X-00057912Y0027834D01*
X-00015107Y00293878D02*
X-00014091Y0029591D01*
X-00015107Y00297942D01*
X-00013075Y00296926D01*
X-00011043Y00297942D01*
X-00012059Y0029591D01*
X-00011043Y00293878D01*
X-00013075Y00294894D01*
X-00015107Y00293878D01*
X-00016377Y00251968D02*
X-00015361Y00254D01*
X-00016377Y00256032D01*
X-00014345Y00255016D01*
X-00012313Y00256032D01*
X-00013329Y00254D01*
X-00012313Y00251968D01*
X-00014345Y00252984D01*
X-00016377Y00251968D01*
X-00050074Y00260858D02*
X-00049058Y0026289D01*
X-00050074Y00264922D01*
X-00048042Y00263906D01*
X-0004601Y00264922D01*
X-00047026Y0026289D01*
X-0004601Y00260858D01*
X-00048042Y00261874D01*
X-00050074Y00260858D01*
X-00084582Y00276496D02*
X-00083566Y00278528D01*
X-00084582Y0028056D01*
X-0008255Y00279544D01*
X-00080518Y0028056D01*
X-00081534Y00278528D01*
X-00080518Y00276496D01*
X-0008255Y00277512D01*
X-00084582Y00276496D01*
Y00261806D02*
X-00083566Y00263838D01*
X-00084582Y0026587D01*
X-0008255Y00264854D01*
X-00080518Y0026587D01*
X-00081534Y00263838D01*
X-00080518Y00261806D01*
X-0008255Y00262822D01*
X-00084582Y00261806D01*
X-00092202Y00252638D02*
X-00091186Y0025467D01*
X-00092202Y00256702D01*
X-0009017Y00255686D01*
X-00088138Y00256702D01*
X-00089154Y0025467D01*
X-00088138Y00252638D01*
X-0009017Y00253654D01*
X-00092202Y00252638D01*
X-00104979Y00249428D02*
X-00103963Y0025146D01*
X-00104979Y00253492D01*
X-00102947Y00252476D01*
X-00100915Y00253492D01*
X-00101931Y0025146D01*
X-00100915Y00249428D01*
X-00102947Y00250444D01*
X-00104979Y00249428D01*
X-00111252Y00236728D02*
X-00110236Y0023876D01*
X-00111252Y00240792D01*
X-0010922Y00239776D01*
X-00107188Y00240792D01*
X-00108204Y0023876D01*
X-00107188Y00236728D01*
X-0010922Y00237744D01*
X-00111252Y00236728D01*
X-00111221Y00216408D02*
X-00110205Y0021844D01*
X-00111221Y00220472D01*
X-00109189Y00219456D01*
X-00107157Y00220472D01*
X-00108173Y0021844D01*
X-00107157Y00216408D01*
X-00109189Y00217424D01*
X-00111221Y00216408D01*
X-00111707Y00198628D02*
X-00110691Y0020066D01*
X-00111707Y00202692D01*
X-00109675Y00201676D01*
X-00107643Y00202692D01*
X-00108659Y0020066D01*
X-00107643Y00198628D01*
X-00109675Y00199644D01*
X-00111707Y00198628D01*
X-00125222Y00186257D02*
X-00124206Y00188289D01*
X-00125222Y00190321D01*
X-0012319Y00189305D01*
X-00121158Y00190321D01*
X-00122174Y00188289D01*
X-00121158Y00186257D01*
X-0012319Y00187273D01*
X-00125222Y00186257D01*
X-00137922Y00174498D02*
X-00136906Y0017653D01*
X-00137922Y00178562D01*
X-0013589Y00177546D01*
X-00133858Y00178562D01*
X-00134874Y0017653D01*
X-00133858Y00174498D01*
X-0013589Y00175514D01*
X-00137922Y00174498D01*
X-00183683Y00175768D02*
X-00182667Y001778D01*
X-00183683Y00179832D01*
X-00181651Y00178816D01*
X-00179619Y00179832D01*
X-00180635Y001778D01*
X-00179619Y00175768D01*
X-00181651Y00176784D01*
X-00183683Y00175768D01*
X-00201717Y00169418D02*
X-00200701Y0017145D01*
X-00201717Y00173482D01*
X-00199685Y00172466D01*
X-00197653Y00173482D01*
X-00198669Y0017145D01*
X-00197653Y00169418D01*
X-00199685Y00170434D01*
X-00201717Y00169418D01*
Y00187527D02*
X-00200701Y00189559D01*
X-00201717Y00191591D01*
X-00199685Y00190575D01*
X-00197653Y00191591D01*
X-00198669Y00189559D01*
X-00197653Y00187527D01*
X-00199685Y00188543D01*
X-00201717Y00187527D01*
X-00219202Y00181789D02*
X-00218186Y00183821D01*
X-00219202Y00185853D01*
X-0021717Y00184837D01*
X-00215138Y00185853D01*
X-00216154Y00183821D01*
X-00215138Y00181789D01*
X-0021717Y00182805D01*
X-00219202Y00181789D01*
Y00211328D02*
X-00218186Y0021336D01*
X-00219202Y00215392D01*
X-0021717Y00214376D01*
X-00215138Y00215392D01*
X-00216154Y0021336D01*
X-00215138Y00211328D01*
X-0021717Y00212344D01*
X-00219202Y00211328D01*
Y00150542D02*
X-00218186Y00152574D01*
X-00219202Y00154606D01*
X-0021717Y0015359D01*
X-00215138Y00154606D01*
X-00216154Y00152574D01*
X-00215138Y00150542D01*
X-0021717Y00151558D01*
X-00219202Y00150542D01*
X-00207772Y00079701D02*
X-00206756Y00081733D01*
X-00207772Y00083765D01*
X-0020574Y00082749D01*
X-00203708Y00083765D01*
X-00204724Y00081733D01*
X-00203708Y00079701D01*
X-0020574Y00080717D01*
X-00207772Y00079701D01*
X-00145542Y00121158D02*
X-00144526Y0012319D01*
X-00145542Y00125222D01*
X-0014351Y00124206D01*
X-00141478Y00125222D01*
X-00142494Y0012319D01*
X-00141478Y00121158D01*
X-0014351Y00122174D01*
X-00145542Y00121158D01*
X-00126492D02*
X-00125476Y0012319D01*
X-00126492Y00125222D01*
X-0012446Y00124206D01*
X-00122428Y00125222D01*
X-00123444Y0012319D01*
X-00122428Y00121158D01*
X-0012446Y00122174D01*
X-00126492Y00121158D01*
X-00165147Y00098317D02*
X-00164131Y00100349D01*
X-00165147Y00102381D01*
X-00163115Y00101365D01*
X-00161083Y00102381D01*
X-00162099Y00100349D01*
X-00161083Y00098317D01*
X-00163115Y00099333D01*
X-00165147Y00098317D01*
X-00154432Y00087476D02*
X-00153416Y00089508D01*
X-00154432Y0009154D01*
X-001524Y00090524D01*
X-00150368Y0009154D01*
X-00151384Y00089508D01*
X-00150368Y00087476D01*
X-001524Y00088492D01*
X-00154432Y00087476D01*
X-00134112Y00080189D02*
X-00133096Y00082221D01*
X-00134112Y00084253D01*
X-0013208Y00083237D01*
X-00130048Y00084253D01*
X-00131064Y00082221D01*
X-00130048Y00080189D01*
X-0013208Y00081205D01*
X-00134112Y00080189D01*
X-00206502Y00114513D02*
X-00205486Y00116545D01*
X-00206502Y00118577D01*
X-0020447Y00117561D01*
X-00202438Y00118577D01*
X-00203454Y00116545D01*
X-00202438Y00114513D01*
X-0020447Y00115529D01*
X-00206502Y00114513D01*
X-00195072Y00109728D02*
X-00194056Y0011176D01*
X-00195072Y00113792D01*
X-0019304Y00112776D01*
X-00191008Y00113792D01*
X-00192024Y0011176D01*
X-00191008Y00109728D01*
X-0019304Y00110744D01*
X-00195072Y00109728D01*
X-00179832D02*
X-00178816Y0011176D01*
X-00179832Y00113792D01*
X-001778Y00112776D01*
X-00175768Y00113792D01*
X-00176784Y0011176D01*
X-00175768Y00109728D01*
X-001778Y00110744D01*
X-00179832Y00109728D01*
X-00168809Y00121158D02*
X-00167793Y0012319D01*
X-00168809Y00125222D01*
X-00166777Y00124206D01*
X-00164745Y00125222D01*
X-00165761Y0012319D01*
X-00164745Y00121158D01*
X-00166777Y00122174D01*
X-00168809Y00121158D01*
X-00162318Y00137724D02*
X-00161302Y00139756D01*
X-00162318Y00141788D01*
X-00160286Y00140772D01*
X-00158254Y00141788D01*
X-0015927Y00139756D01*
X-00158254Y00137724D01*
X-00160286Y0013874D01*
X-00162318Y00137724D01*
X-00145542Y00137668D02*
X-00144526Y001397D01*
X-00145542Y00141732D01*
X-0014351Y00140716D01*
X-00141478Y00141732D01*
X-00142494Y001397D01*
X-00141478Y00137668D01*
X-0014351Y00138684D01*
X-00145542Y00137668D01*
X-00126492Y00138531D02*
X-00125476Y00140563D01*
X-00126492Y00142595D01*
X-0012446Y00141579D01*
X-00122428Y00142595D01*
X-00123444Y00140563D01*
X-00122428Y00138531D01*
X-0012446Y00139547D01*
X-00126492Y00138531D01*
X-00023622Y00064682D02*
X-00022606Y00066714D01*
X-00023622Y00068746D01*
X-0002159Y0006773D01*
X-00019558Y00068746D01*
X-00020574Y00066714D01*
X-00019558Y00064682D01*
X-0002159Y00065698D01*
X-00023622Y00064682D01*
X-00047752D02*
X-00046736Y00066714D01*
X-00047752Y00068746D01*
X-0004572Y0006773D01*
X-00043688Y00068746D01*
X-00044704Y00066714D01*
X-00043688Y00064682D01*
X-0004572Y00065698D01*
X-00047752Y00064682D01*
X-00073152D02*
X-00072136Y00066714D01*
X-00073152Y00068746D01*
X-0007112Y0006773D01*
X-00069088Y00068746D01*
X-00070104Y00066714D01*
X-00069088Y00064682D01*
X-0007112Y00065698D01*
X-00073152Y00064682D01*
X-00099838D02*
X-00098822Y00066714D01*
X-00099838Y00068746D01*
X-00097806Y0006773D01*
X-00095774Y00068746D01*
X-0009679Y00066714D01*
X-00095774Y00064682D01*
X-00097806Y00065698D01*
X-00099838Y00064682D01*
Y00085598D02*
X-00098822Y0008763D01*
X-00099838Y00089662D01*
X-00097806Y00088646D01*
X-00095774Y00089662D01*
X-0009679Y0008763D01*
X-00095774Y00085598D01*
X-00097806Y00086614D01*
X-00099838Y00085598D01*
X-00073152D02*
X-00072136Y0008763D01*
X-00073152Y00089662D01*
X-0007112Y00088646D01*
X-00069088Y00089662D01*
X-00070104Y0008763D01*
X-00069088Y00085598D01*
X-0007112Y00086614D01*
X-00073152Y00085598D01*
X-00047752D02*
X-00046736Y0008763D01*
X-00047752Y00089662D01*
X-0004572Y00088646D01*
X-00043688Y00089662D01*
X-00044704Y0008763D01*
X-00043688Y00085598D01*
X-0004572Y00086614D01*
X-00047752Y00085598D01*
X-00023622D02*
X-00022606Y0008763D01*
X-00023622Y00089662D01*
X-0002159Y00088646D01*
X-00019558Y00089662D01*
X-00020574Y0008763D01*
X-00019558Y00085598D01*
X-0002159Y00086614D01*
X-00023622Y00085598D01*
Y00105918D02*
X-00022606Y0010795D01*
X-00023622Y00109982D01*
X-0002159Y00108966D01*
X-00019558Y00109982D01*
X-00020574Y0010795D01*
X-00019558Y00105918D01*
X-0002159Y00106934D01*
X-00023622Y00105918D01*
X-00047752D02*
X-00046736Y0010795D01*
X-00047752Y00109982D01*
X-0004572Y00108966D01*
X-00043688Y00109982D01*
X-00044704Y0010795D01*
X-00043688Y00105918D01*
X-0004572Y00106934D01*
X-00047752Y00105918D01*
X-00073152D02*
X-00072136Y0010795D01*
X-00073152Y00109982D01*
X-0007112Y00108966D01*
X-00069088Y00109982D01*
X-00070104Y0010795D01*
X-00069088Y00105918D01*
X-0007112Y00106934D01*
X-00073152Y00105918D01*
X-00099838D02*
X-00098822Y0010795D01*
X-00099838Y00109982D01*
X-00097806Y00108966D01*
X-00095774Y00109982D01*
X-0009679Y0010795D01*
X-00095774Y00105918D01*
X-00097806Y00106934D01*
X-00099838Y00105918D01*
Y00126238D02*
X-00098822Y0012827D01*
X-00099838Y00130302D01*
X-00097806Y00129286D01*
X-00095774Y00130302D01*
X-0009679Y0012827D01*
X-00095774Y00126238D01*
X-00097806Y00127254D01*
X-00099838Y00126238D01*
X-00073152D02*
X-00072136Y0012827D01*
X-00073152Y00130302D01*
X-0007112Y00129286D01*
X-00069088Y00130302D01*
X-00070104Y0012827D01*
X-00069088Y00126238D01*
X-0007112Y00127254D01*
X-00073152Y00126238D01*
X-00047752D02*
X-00046736Y0012827D01*
X-00047752Y00130302D01*
X-0004572Y00129286D01*
X-00043688Y00130302D01*
X-00044704Y0012827D01*
X-00043688Y00126238D01*
X-0004572Y00127254D01*
X-00047752Y00126238D01*
X-00023622D02*
X-00022606Y0012827D01*
X-00023622Y00130302D01*
X-0002159Y00129286D01*
X-00019558Y00130302D01*
X-00020574Y0012827D01*
X-00019558Y00126238D01*
X-0002159Y00127254D01*
X-00023622Y00126238D01*
X-00073152Y00147193D02*
X-00072136Y00149225D01*
X-00073152Y00151257D01*
X-0007112Y00150241D01*
X-00069088Y00151257D01*
X-00070104Y00149225D01*
X-00069088Y00147193D01*
X-0007112Y00148209D01*
X-00073152Y00147193D01*
X-00099838D02*
X-00098822Y00149225D01*
X-00099838Y00151257D01*
X-00097806Y00150241D01*
X-00095774Y00151257D01*
X-0009679Y00149225D01*
X-00095774Y00147193D01*
X-00097806Y00148209D01*
X-00099838Y00147193D01*
X-00047752D02*
X-00046736Y00149225D01*
X-00047752Y00151257D01*
X-0004572Y00150241D01*
X-00043688Y00151257D01*
X-00044704Y00149225D01*
X-00043688Y00147193D01*
X-0004572Y00148209D01*
X-00047752Y00147193D01*
X-00023622D02*
X-00022606Y00149225D01*
X-00023622Y00151257D01*
X-0002159Y00150241D01*
X-00019558Y00151257D01*
X-00020574Y00149225D01*
X-00019558Y00147193D01*
X-0002159Y00148209D01*
X-00023622Y00147193D01*
X-00220472Y00048768D02*
X-00219456Y000508D01*
X-00220472Y00052832D01*
X-0021844Y00051816D01*
X-00216408Y00052832D01*
X-00217424Y000508D01*
X-00216408Y00048768D01*
X-0021844Y00049784D01*
X-00220472Y00048768D01*
Y00034798D02*
X-00219456Y0003683D01*
X-00220472Y00038862D01*
X-0021844Y00037846D01*
X-00216408Y00038862D01*
X-00217424Y0003683D01*
X-00216408Y00034798D01*
X-0021844Y00035814D01*
X-00220472Y00034798D01*
Y00018509D02*
X-00219456Y00020541D01*
X-00220472Y00022573D01*
X-0021844Y00021557D01*
X-00216408Y00022573D01*
X-00217424Y00020541D01*
X-00216408Y00018509D01*
X-0021844Y00019525D01*
X-00220472Y00018509D01*
X-00206502Y00006858D02*
X-00205486Y0000889D01*
X-00206502Y00010922D01*
X-0020447Y00009906D01*
X-00202438Y00010922D01*
X-00203454Y0000889D01*
X-00202438Y00006858D01*
X-0020447Y00007874D01*
X-00206502Y00006858D01*
X-00188468D02*
X-00187452Y0000889D01*
X-00188468Y00010922D01*
X-00186436Y00009906D01*
X-00184404Y00010922D01*
X-0018542Y0000889D01*
X-00184404Y00006858D01*
X-00186436Y00007874D01*
X-00188468Y00006858D01*
X-00075692D02*
X-00074676Y0000889D01*
X-00075692Y00010922D01*
X-0007366Y00009906D01*
X-00071628Y00010922D01*
X-00072644Y0000889D01*
X-00071628Y00006858D01*
X-0007366Y00007874D01*
X-00075692Y00006858D01*
X-00057912D02*
X-00056896Y0000889D01*
X-00057912Y00010922D01*
X-0005588Y00009906D01*
X-00053848Y00010922D01*
X-00054864Y0000889D01*
X-00053848Y00006858D01*
X-0005588Y00007874D01*
X-00057912Y00006858D01*
X-00038862D02*
X-00037846Y0000889D01*
X-00038862Y00010922D01*
X-0003683Y00009906D01*
X-00034798Y00010922D01*
X-00035814Y0000889D01*
X-00034798Y00006858D01*
X-0003683Y00007874D01*
X-00038862Y00006858D01*
X-00022352D02*
X-00021336Y0000889D01*
X-00022352Y00010922D01*
X-0002032Y00009906D01*
X-00018288Y00010922D01*
X-00019304Y0000889D01*
X-00018288Y00006858D01*
X-0002032Y00007874D01*
X-00022352Y00006858D01*
X-00010922Y00048768D02*
X-00009906Y000508D01*
X-00010922Y00052832D01*
X-0000889Y00051816D01*
X-00006858Y00052832D01*
X-00007874Y000508D01*
X-00006858Y00048768D01*
X-0000889Y00049784D01*
X-00010922Y00048768D01*
Y00033528D02*
X-00009906Y0003556D01*
X-00010922Y00037592D01*
X-0000889Y00036576D01*
X-00006858Y00037592D01*
X-00007874Y0003556D01*
X-00006858Y00033528D01*
X-0000889Y00034544D01*
X-00010922Y00033528D01*
Y00018509D02*
X-00009906Y00020541D01*
X-00010922Y00022573D01*
X-0000889Y00021557D01*
X-00006858Y00022573D01*
X-00007874Y00020541D01*
X-00006858Y00018509D01*
X-0000889Y00019525D01*
X-00010922Y00018509D01*
X-00169672Y00008128D02*
X-00168656Y0001016D01*
X-00169672Y00012192D01*
X-0016764Y00011176D01*
X-00165608Y00012192D01*
X-00166624Y0001016D01*
X-00165608Y00008128D01*
X-0016764Y00009144D01*
X-00169672Y00008128D01*
X-00164592Y00013208D02*
X-00163576Y0001524D01*
X-00164592Y00017272D01*
X-0016256Y00016256D01*
X-00160528Y00017272D01*
X-00161544Y0001524D01*
X-00160528Y00013208D01*
X-0016256Y00014224D01*
X-00164592Y00013208D01*
X-00169672Y00018288D02*
X-00168656Y0002032D01*
X-00169672Y00022352D01*
X-0016764Y00021336D01*
X-00165608Y00022352D01*
X-00166624Y0002032D01*
X-00165608Y00018288D01*
X-0016764Y00019304D01*
X-00169672Y00018288D01*
X-00164592Y00023368D02*
X-00163576Y000254D01*
X-00164592Y00027432D01*
X-0016256Y00026416D01*
X-00160528Y00027432D01*
X-00161544Y000254D01*
X-00160528Y00023368D01*
X-0016256Y00024384D01*
X-00164592Y00023368D01*
X-00169672Y00028448D02*
X-00168656Y0003048D01*
X-00169672Y00032512D01*
X-0016764Y00031496D01*
X-00165608Y00032512D01*
X-00166624Y0003048D01*
X-00165608Y00028448D01*
X-0016764Y00029464D01*
X-00169672Y00028448D01*
X-00164592Y00033528D02*
X-00163576Y0003556D01*
X-00164592Y00037592D01*
X-0016256Y00036576D01*
X-00160528Y00037592D01*
X-00161544Y0003556D01*
X-00160528Y00033528D01*
X-0016256Y00034544D01*
X-00164592Y00033528D01*
X-00169672Y00038608D02*
X-00168656Y0004064D01*
X-00169672Y00042672D01*
X-0016764Y00041656D01*
X-00165608Y00042672D01*
X-00166624Y0004064D01*
X-00165608Y00038608D01*
X-0016764Y00039624D01*
X-00169672Y00038608D01*
X-00139192Y00008128D02*
X-00138176Y0001016D01*
X-00139192Y00012192D01*
X-0013716Y00011176D01*
X-00135128Y00012192D01*
X-00136144Y0001016D01*
X-00135128Y00008128D01*
X-0013716Y00009144D01*
X-00139192Y00008128D01*
X-00144272Y00013208D02*
X-00143256Y0001524D01*
X-00144272Y00017272D01*
X-0014224Y00016256D01*
X-00140208Y00017272D01*
X-00141224Y0001524D01*
X-00140208Y00013208D01*
X-0014224Y00014224D01*
X-00144272Y00013208D01*
X-00139192Y00018288D02*
X-00138176Y0002032D01*
X-00139192Y00022352D01*
X-0013716Y00021336D01*
X-00135128Y00022352D01*
X-00136144Y0002032D01*
X-00135128Y00018288D01*
X-0013716Y00019304D01*
X-00139192Y00018288D01*
X-00144272Y00023368D02*
X-00143256Y000254D01*
X-00144272Y00027432D01*
X-0014224Y00026416D01*
X-00140208Y00027432D01*
X-00141224Y000254D01*
X-00140208Y00023368D01*
X-0014224Y00024384D01*
X-00144272Y00023368D01*
X-00139192Y00028448D02*
X-00138176Y0003048D01*
X-00139192Y00032512D01*
X-0013716Y00031496D01*
X-00135128Y00032512D01*
X-00136144Y0003048D01*
X-00135128Y00028448D01*
X-0013716Y00029464D01*
X-00139192Y00028448D01*
X-00144272Y00033528D02*
X-00143256Y0003556D01*
X-00144272Y00037592D01*
X-0014224Y00036576D01*
X-00140208Y00037592D01*
X-00141224Y0003556D01*
X-00140208Y00033528D01*
X-0014224Y00034544D01*
X-00144272Y00033528D01*
X-00139192Y00038608D02*
X-00138176Y0004064D01*
X-00139192Y00042672D01*
X-0013716Y00041656D01*
X-00135128Y00042672D01*
X-00136144Y0004064D01*
X-00135128Y00038608D01*
X-0013716Y00039624D01*
X-00139192Y00038608D01*
X-00118872Y00008128D02*
X-00117856Y0001016D01*
X-00118872Y00012192D01*
X-0011684Y00011176D01*
X-00114808Y00012192D01*
X-00115824Y0001016D01*
X-00114808Y00008128D01*
X-0011684Y00009144D01*
X-00118872Y00008128D01*
X-00113792Y00013208D02*
X-00112776Y0001524D01*
X-00113792Y00017272D01*
X-0011176Y00016256D01*
X-00109728Y00017272D01*
X-00110744Y0001524D01*
X-00109728Y00013208D01*
X-0011176Y00014224D01*
X-00113792Y00013208D01*
X-00119355Y00018288D02*
X-00118339Y0002032D01*
X-00119355Y00022352D01*
X-00117323Y00021336D01*
X-00115291Y00022352D01*
X-00116307Y0002032D01*
X-00115291Y00018288D01*
X-00117323Y00019304D01*
X-00119355Y00018288D01*
X-00113792Y00023368D02*
X-00112776Y000254D01*
X-00113792Y00027432D01*
X-0011176Y00026416D01*
X-00109728Y00027432D01*
X-00110744Y000254D01*
X-00109728Y00023368D01*
X-0011176Y00024384D01*
X-00113792Y00023368D01*
X-00119355Y00028448D02*
X-00118339Y0003048D01*
X-00119355Y00032512D01*
X-00117323Y00031496D01*
X-00115291Y00032512D01*
X-00116307Y0003048D01*
X-00115291Y00028448D01*
X-00117323Y00029464D01*
X-00119355Y00028448D01*
X-00113703Y00033528D02*
X-00112687Y0003556D01*
X-00113703Y00037592D01*
X-00111671Y00036576D01*
X-00109639Y00037592D01*
X-00110655Y0003556D01*
X-00109639Y00033528D01*
X-00111671Y00034544D01*
X-00113703Y00033528D01*
X-00118872Y00038608D02*
X-00117856Y0004064D01*
X-00118872Y00042672D01*
X-0011684Y00041656D01*
X-00114808Y00042672D01*
X-00115824Y0004064D01*
X-00114808Y00038608D01*
X-0011684Y00039624D01*
X-00118872Y00038608D01*
X-00419862Y00008128D02*
X-00418846Y0001016D01*
X-00419862Y00012192D01*
X-0041783Y00011176D01*
X-00415798Y00012192D01*
X-00416814Y0001016D01*
X-00415798Y00008128D01*
X-0041783Y00009144D01*
X-00419862Y00008128D01*
X-00424942Y00012669D02*
X-00423926Y00014701D01*
X-00424942Y00016733D01*
X-0042291Y00015717D01*
X-00420878Y00016733D01*
X-00421894Y00014701D01*
X-00420878Y00012669D01*
X-0042291Y00013685D01*
X-00424942Y00012669D01*
X-00419862Y00018509D02*
X-00418846Y00020541D01*
X-00419862Y00022573D01*
X-0041783Y00021557D01*
X-00415798Y00022573D01*
X-00416814Y00020541D01*
X-00415798Y00018509D01*
X-0041783Y00019525D01*
X-00419862Y00018509D01*
X-00424942Y0002413D02*
X-00423926Y00026162D01*
X-00424942Y00028194D01*
X-0042291Y00027178D01*
X-00420878Y00028194D01*
X-00421894Y00026162D01*
X-00420878Y0002413D01*
X-0042291Y00025146D01*
X-00424942Y0002413D01*
X-00399542Y00008128D02*
X-00398526Y0001016D01*
X-00399542Y00012192D01*
X-0039751Y00011176D01*
X-00395478Y00012192D01*
X-00396494Y0001016D01*
X-00395478Y00008128D01*
X-0039751Y00009144D01*
X-00399542Y00008128D01*
X-00394462Y00013208D02*
X-00393446Y0001524D01*
X-00394462Y00017272D01*
X-0039243Y00016256D01*
X-00390398Y00017272D01*
X-00391414Y0001524D01*
X-00390398Y00013208D01*
X-0039243Y00014224D01*
X-00394462Y00013208D01*
X-00399542Y00018288D02*
X-00398526Y0002032D01*
X-00399542Y00022352D01*
X-0039751Y00021336D01*
X-00395478Y00022352D01*
X-00396494Y0002032D01*
X-00395478Y00018288D01*
X-0039751Y00019304D01*
X-00399542Y00018288D01*
X-00394462Y00023368D02*
X-00393446Y000254D01*
X-00394462Y00027432D01*
X-0039243Y00026416D01*
X-00390398Y00027432D01*
X-00391414Y000254D01*
X-00390398Y00023368D01*
X-0039243Y00024384D01*
X-00394462Y00023368D01*
X-00399542Y00028448D02*
X-00398526Y0003048D01*
X-00399542Y00032512D01*
X-0039751Y00031496D01*
X-00395478Y00032512D01*
X-00396494Y0003048D01*
X-00395478Y00028448D01*
X-0039751Y00029464D01*
X-00399542Y00028448D01*
X-00394462Y00033528D02*
X-00393446Y0003556D01*
X-00394462Y00037592D01*
X-0039243Y00036576D01*
X-00390398Y00037592D01*
X-00391414Y0003556D01*
X-00390398Y00033528D01*
X-0039243Y00034544D01*
X-00394462Y00033528D01*
X-00399542Y00038608D02*
X-00398526Y0004064D01*
X-00399542Y00042672D01*
X-0039751Y00041656D01*
X-00395478Y00042672D01*
X-00396494Y0004064D01*
X-00395478Y00038608D01*
X-0039751Y00039624D01*
X-00399542Y00038608D01*
X-00419862Y00028448D02*
X-00418846Y0003048D01*
X-00419862Y00032512D01*
X-0041783Y00031496D01*
X-00415798Y00032512D01*
X-00416814Y0003048D01*
X-00415798Y00028448D01*
X-0041783Y00029464D01*
X-00419862Y00028448D01*
X-00424942Y00033528D02*
X-00423926Y0003556D01*
X-00424942Y00037592D01*
X-0042291Y00036576D01*
X-00420878Y00037592D01*
X-00421894Y0003556D01*
X-00420878Y00033528D01*
X-0042291Y00034544D01*
X-00424942Y00033528D01*
X-00419862Y00038608D02*
X-00418846Y0004064D01*
X-00419862Y00042672D01*
X-0041783Y00041656D01*
X-00415798Y00042672D01*
X-00416814Y0004064D01*
X-00415798Y00038608D01*
X-0041783Y00039624D01*
X-00419862Y00038608D01*
X-00450342Y00008128D02*
X-00449326Y0001016D01*
X-00450342Y00012192D01*
X-0044831Y00011176D01*
X-00446278Y00012192D01*
X-00447294Y0001016D01*
X-00446278Y00008128D01*
X-0044831Y00009144D01*
X-00450342Y00008128D01*
X-00445262Y00013208D02*
X-00444246Y0001524D01*
X-00445262Y00017272D01*
X-0044323Y00016256D01*
X-00441198Y00017272D01*
X-00442214Y0001524D01*
X-00441198Y00013208D01*
X-0044323Y00014224D01*
X-00445262Y00013208D01*
X-00450342Y00018288D02*
X-00449326Y0002032D01*
X-00450342Y00022352D01*
X-0044831Y00021336D01*
X-00446278Y00022352D01*
X-00447294Y0002032D01*
X-00446278Y00018288D01*
X-0044831Y00019304D01*
X-00450342Y00018288D01*
X-00445262Y00023368D02*
X-00444246Y000254D01*
X-00445262Y00027432D01*
X-0044323Y00026416D01*
X-00441198Y00027432D01*
X-00442214Y000254D01*
X-00441198Y00023368D01*
X-0044323Y00024384D01*
X-00445262Y00023368D01*
X-00450342Y00028448D02*
X-00449326Y0003048D01*
X-00450342Y00032512D01*
X-0044831Y00031496D01*
X-00446278Y00032512D01*
X-00447294Y0003048D01*
X-00446278Y00028448D01*
X-0044831Y00029464D01*
X-00450342Y00028448D01*
X-00445262Y00033528D02*
X-00444246Y0003556D01*
X-00445262Y00037592D01*
X-0044323Y00036576D01*
X-00441198Y00037592D01*
X-00442214Y0003556D01*
X-00441198Y00033528D01*
X-0044323Y00034544D01*
X-00445262Y00033528D01*
X-00450342Y00038608D02*
X-00449326Y0004064D01*
X-00450342Y00042672D01*
X-0044831Y00041656D01*
X-00446278Y00042672D01*
X-00447294Y0004064D01*
X-00446278Y00038608D01*
X-0044831Y00039624D01*
X-00450342Y00038608D01*
X-00470662Y00008128D02*
X-00469646Y0001016D01*
X-00470662Y00012192D01*
X-0046863Y00011176D01*
X-00466598Y00012192D01*
X-00467614Y0001016D01*
X-00466598Y00008128D01*
X-0046863Y00009144D01*
X-00470662Y00008128D01*
X-00475742Y00013208D02*
X-00474726Y0001524D01*
X-00475742Y00017272D01*
X-0047371Y00016256D01*
X-00471678Y00017272D01*
X-00472694Y0001524D01*
X-00471678Y00013208D01*
X-0047371Y00014224D01*
X-00475742Y00013208D01*
X-00470662Y00018288D02*
X-00469646Y0002032D01*
X-00470662Y00022352D01*
X-0046863Y00021336D01*
X-00466598Y00022352D01*
X-00467614Y0002032D01*
X-00466598Y00018288D01*
X-0046863Y00019304D01*
X-00470662Y00018288D01*
X-00475742Y00023368D02*
X-00474726Y000254D01*
X-00475742Y00027432D01*
X-0047371Y00026416D01*
X-00471678Y00027432D01*
X-00472694Y000254D01*
X-00471678Y00023368D01*
X-0047371Y00024384D01*
X-00475742Y00023368D01*
X-00470662Y00028448D02*
X-00469646Y0003048D01*
X-00470662Y00032512D01*
X-0046863Y00031496D01*
X-00466598Y00032512D01*
X-00467614Y0003048D01*
X-00466598Y00028448D01*
X-0046863Y00029464D01*
X-00470662Y00028448D01*
X-00475742Y00033528D02*
X-00474726Y0003556D01*
X-00475742Y00037592D01*
X-0047371Y00036576D01*
X-00471678Y00037592D01*
X-00472694Y0003556D01*
X-00471678Y00033528D01*
X-0047371Y00034544D01*
X-00475742Y00033528D01*
X-00470662Y00038608D02*
X-00469646Y0004064D01*
X-00470662Y00042672D01*
X-0046863Y00041656D01*
X-00466598Y00042672D01*
X-00467614Y0004064D01*
X-00466598Y00038608D01*
X-0046863Y00039624D01*
X-00470662Y00038608D01*
X-00088392Y00008128D02*
X-00087376Y0001016D01*
X-00088392Y00012192D01*
X-0008636Y00011176D01*
X-00084328Y00012192D01*
X-00085344Y0001016D01*
X-00084328Y00008128D01*
X-0008636Y00009144D01*
X-00088392Y00008128D01*
X-00093472Y00013208D02*
X-00092456Y0001524D01*
X-00093472Y00017272D01*
X-0009144Y00016256D01*
X-00089408Y00017272D01*
X-00090424Y0001524D01*
X-00089408Y00013208D01*
X-0009144Y00014224D01*
X-00093472Y00013208D01*
X-00088392Y00018288D02*
X-00087376Y0002032D01*
X-00088392Y00022352D01*
X-0008636Y00021336D01*
X-00084328Y00022352D01*
X-00085344Y0002032D01*
X-00084328Y00018288D01*
X-0008636Y00019304D01*
X-00088392Y00018288D01*
X-00093472Y00023368D02*
X-00092456Y000254D01*
X-00093472Y00027432D01*
X-0009144Y00026416D01*
X-00089408Y00027432D01*
X-00090424Y000254D01*
X-00089408Y00023368D01*
X-0009144Y00024384D01*
X-00093472Y00023368D01*
X-00088392Y00028448D02*
X-00087376Y0003048D01*
X-00088392Y00032512D01*
X-0008636Y00031496D01*
X-00084328Y00032512D01*
X-00085344Y0003048D01*
X-00084328Y00028448D01*
X-0008636Y00029464D01*
X-00088392Y00028448D01*
X-00093472Y00033528D02*
X-00092456Y0003556D01*
X-00093472Y00037592D01*
X-0009144Y00036576D01*
X-00089408Y00037592D01*
X-00090424Y0003556D01*
X-00089408Y00033528D01*
X-0009144Y00034544D01*
X-00093472Y00033528D01*
X-00088392Y00038608D02*
X-00087376Y0004064D01*
X-00088392Y00042672D01*
X-0008636Y00041656D01*
X-00084328Y00042672D01*
X-00085344Y0004064D01*
X-00084328Y00038608D01*
X-0008636Y00039624D01*
X-00088392Y00038608D01*
D12*
X-00342138Y0009228D02*
G03*
X-00342138Y0009228I-00002032J0D01*
G01*
Y0007028D02*
G03*
X-00342138Y0007028I-00002032J0D01*
G01*
X-00246888Y0009101D02*
G03*
X-00246888Y0009101I-00002032J0D01*
G01*
Y0006901D02*
G03*
X-00246888Y0006901I-00002032J0D01*
G01*
X-00184658Y0015451D02*
G03*
X-00184658Y0015451I-00002032J0D01*
G01*
Y0013251D02*
G03*
X-00184658Y0013251I-00002032J0D01*
G01*
M02*
