G04*
G04 #@! TF.GenerationSoftware,Altium Limited,Altium Designer,19.0.4 (130)*
G04*
G04 Layer_Color=65535*
%FSTAX44Y44*%
%MOMM*%
G71*
G01*
G75*
%ADD10C,0.2540*%
%ADD11R,2.5400X1.2700*%
D10*
X-0023241Y0005588D02*
Y0029337D01*
X-0031496Y0002413D02*
X-0026416D01*
X-0030226Y0001143D02*
X-0027686Y0003683D01*
X-0051435Y0004699D02*
Y0030099D01*
Y0004699D02*
X-0000635D01*
Y0030099D01*
X-0051435D02*
X-0000635D01*
X-0019304Y0001778D02*
Y00027937D01*
X-00187962Y00033015D01*
X-00182883Y00027937D01*
Y0001778D01*
Y00025398D01*
X-0019304D01*
X-0046355Y00200658D02*
X-00453393D01*
X-00448315Y00208275D02*
Y00198118D01*
X-00443237Y0019304D01*
X-00438158Y00198118D01*
Y00208275D01*
X-0043308Y0019304D02*
X-00428002D01*
X-00430541D01*
Y00203197D01*
X-0043308D01*
X-00420384Y0019304D02*
Y00203197D01*
X-00412766D01*
X-00410227Y00200658D01*
Y0019304D01*
X-0046355Y00152397D02*
X-00453393D01*
X-00458472Y00157476D02*
Y00147319D01*
X-00448315Y00160015D02*
Y00149858D01*
X-00443237Y0014478D01*
X-00438158Y00149858D01*
Y00160015D01*
X-0043308Y0014478D02*
X-00428002D01*
X-00430541D01*
Y00154937D01*
X-0043308D01*
X-00420384Y0014478D02*
Y00154937D01*
X-00412766D01*
X-00410227Y00152397D01*
Y0014478D01*
X-0014859Y00097788D02*
X-00138433D01*
X-00143512Y00102866D02*
Y00092709D01*
X-00133355Y00105405D02*
Y00095248D01*
X-00128277Y0009017D01*
X-00123198Y00095248D01*
Y00105405D01*
X-00115581Y0009017D02*
X-00110502D01*
X-00107963Y00092709D01*
Y00097788D01*
X-00110502Y00100327D01*
X-00115581D01*
X-0011812Y00097788D01*
Y00092709D01*
X-00115581Y0009017D01*
X-0015621Y00243838D02*
X-00146053D01*
X-00140975Y00251455D02*
Y00241298D01*
X-00135897Y0023622D01*
X-00130818Y00241298D01*
Y00251455D01*
X-00123201Y0023622D02*
X-00118122D01*
X-00115583Y00238759D01*
Y00243838D01*
X-00118122Y00246377D01*
X-00123201D01*
X-0012574Y00243838D01*
Y00238759D01*
X-00123201Y0023622D01*
X-0049911Y0001778D02*
Y00027937D01*
X-00494032Y00033015D01*
X-00488953Y00027937D01*
Y0001778D01*
Y00025398D01*
X-0049911D01*
X-00508Y00294635D02*
Y00281939D01*
X-00505461Y002794D01*
X-00500382D01*
X-00497843Y00281939D01*
Y00294635D01*
X-00492765Y002794D02*
X-00487687D01*
X-00490226D01*
Y00294635D01*
X-00492765Y00292096D01*
X-0029845Y000508D02*
Y00066035D01*
X-00290833D01*
X-00288293Y00063496D01*
Y00058418D01*
X-00290833Y00055878D01*
X-0029845D01*
X-00293372D02*
X-00288293Y000508D01*
X-00283215D02*
X-00278137D01*
X-00280676D01*
Y00066035D01*
X-00283215Y00063496D01*
X-00198123Y00067305D02*
X-00203202D01*
X-00200662D01*
Y00054609D01*
X-00203202Y0005207D01*
X-00205741D01*
X-0020828Y00054609D01*
X-00193045Y0005207D02*
Y00067305D01*
X-00185427D01*
X-00182888Y00064766D01*
Y00059688D01*
X-00185427Y00057148D01*
X-00193045D01*
X-00167653Y0005207D02*
X-0017781D01*
X-00167653Y00062227D01*
Y00064766D01*
X-00170192Y00067305D01*
X-00175271D01*
X-0017781Y00064766D01*
X-00488953Y00067813D02*
X-00494032D01*
X-00491493D01*
Y00055117D01*
X-00494032Y00052578D01*
X-00496571D01*
X-0049911Y00055117D01*
X-00483875Y00052578D02*
Y00067813D01*
X-00476257D01*
X-00473718Y00065274D01*
Y00060195D01*
X-00476257Y00057656D01*
X-00483875D01*
X-0046864Y00052578D02*
X-00463562D01*
X-00466101D01*
Y00067813D01*
X-0046864Y00065274D01*
D11*
X-0028956Y0002413D02*
D03*
M02*
